<?xml version="1.0" encoding="UTF-8"?>
<svg width="30px" height="25px" viewBox="0 0 30 25" version="1.1" xmlns="http://www.w3.org/2000/svg" xmlns:xlink="http://www.w3.org/1999/xlink">
    <!-- Generator: Sketch 52.2 (67145) - http://www.bohemiancoding.com/sketch -->
    <title>bird-2</title>
    <desc>Created with Sketch.</desc>
    <g id="Website-Design" stroke="none" stroke-width="1" fill="none" fill-rule="evenodd">
        <g id="Square" transform="translate(-233.000000, -313.000000)" fill="#1DA1F2">
            <g id="bird-2" transform="translate(233.000000, 313.000000)">
                <path d="M29.70296,3.21125 C28.60556,3.6975 27.43376,4.02875 26.19996,4.18 C27.45732,3.41625 28.42452,2.2125 28.88208,0.77625 C27.70284,1.47 26.39588,1.975 25.0046,2.25625 C23.89356,1.0575 22.31008,0.3075 20.55176,0.3075 C17.18268,0.3075 14.45096,3.06125 14.45096,6.45375 C14.45096,6.94125 14.50676,7.41 14.60844,7.85875 C9.53684,7.6175 5.04184,5.1625 2.0336,1.45125 C1.50412,2.35375 1.20776,3.4025 1.20776,4.545 C1.20776,6.6825 2.28656,8.56125 3.92088,9.665 C2.9202,9.6325 1.97904,9.355 1.15816,8.895 L1.15816,8.97125 C1.15816,11.9525 3.25748,14.43875 6.0512,15.005 C5.53908,15.14375 4.99844,15.21875 4.44416,15.21875 C4.0548,15.21875 3.68156,15.18125 3.30832,15.11125 C4.09076,17.5525 6.34012,19.3325 9.01728,19.3825 C6.93408,21.03125 4.29412,22.01375 1.4508,22.01375 C0.9672,22.01375 0.48484,21.985 0,21.93 C2.71436,23.6725 5.91232,24.69125 9.37068,24.69125 C20.59764,24.69125 26.72944,15.32125 26.72944,7.20875 C26.72944,6.9475 26.72944,6.68375 26.71084,6.42125 C27.90248,5.56 28.94284,4.47125 29.76124,3.23625 L29.70296,3.21125 Z" id="Path"></path>
            </g>
        </g>
    </g>
</svg>