<?xml version="1.0" encoding="UTF-8"?>
<svg width="25px" height="25px" viewBox="0 0 25 25" version="1.1" xmlns="http://www.w3.org/2000/svg" xmlns:xlink="http://www.w3.org/1999/xlink">
    <!-- Generator: Sketch 52.2 (67145) - http://www.bohemiancoding.com/sketch -->
    <title>f-2</title>
    <desc>Created with Sketch.</desc>
    <g id="Website-Design" stroke="none" stroke-width="1" fill="none" fill-rule="evenodd">
        <g id="Square" transform="translate(-193.000000, -313.000000)" fill="#3B5998">
            <g id="f-2" transform="translate(193.000000, 313.000000)">
                <path d="M23.6208333,0 L1.37916667,0 C0.617708333,0 0,0.617708333 0,1.37916667 L0,23.6208333 C0,24.3833333 0.617708333,25 1.37916667,25 L13.3520833,25 L13.3520833,15.31875 L10.0927083,15.31875 L10.0927083,11.546875 L13.3520833,11.546875 L13.3520833,8.76041667 C13.3520833,5.53229167 15.325,3.77604167 18.2052083,3.77604167 C19.5854167,3.77604167 20.771875,3.87708333 21.1177083,3.92291667 L21.1177083,7.29791667 L19.1166667,7.29791667 C17.5541667,7.29791667 17.25,8.04895833 17.25,9.14270833 L17.25,11.55 L20.9833333,11.55 L20.4989583,15.33125 L17.25,15.33125 L17.25,25 L23.6197917,25 C24.3833333,25 25,24.3833333 25,23.6208333 L25,1.37916667 C25,0.617708333 24.3833333,0 23.6208333,0" id="Path"></path>
            </g>
        </g>
    </g>
</svg>