<?xml version="1.0" encoding="UTF-8"?>
<svg width="20px" height="20px" viewBox="0 0 20 20" version="1.1" xmlns="http://www.w3.org/2000/svg" xmlns:xlink="http://www.w3.org/1999/xlink">
    <!-- Generator: Sketch 52.2 (67145) - http://www.bohemiancoding.com/sketch -->
    <title>Search</title>
    <desc>Created with Sketch.</desc>
    <defs>
        <path d="M1327.17603,43.7618116 L1331.70711,48.2928932 C1332.09763,48.6834175 1332.09763,49.3165825 1331.70711,49.7071068 C1331.31658,50.0976311 1330.68342,50.0976311 1330.29289,49.7071068 L1325.76181,45.1760252 C1324.31452,46.3182963 1322.48687,47 1320.5,47 C1315.80558,47 1312,43.1944204 1312,38.5 C1312,33.8055796 1315.80558,30 1320.5,30 C1325.19442,30 1329,33.8055796 1329,38.5 C1329,40.4868697 1328.3183,42.3145189 1327.17603,43.7618116 Z M1325.15976,43.0317433 C1326.29862,41.8609174 1327,40.2623671 1327,38.5 C1327,34.9101491 1324.08985,32 1320.5,32 C1316.91015,32 1314,34.9101491 1314,38.5 C1314,42.0898509 1316.91015,45 1320.5,45 C1322.26237,45 1323.86092,44.2986171 1325.03174,43.1597589 C1325.05093,43.1367843 1325.07132,43.1144685 1325.09289,43.0928932 C1325.11447,43.071318 1325.13678,43.0509347 1325.15976,43.0317433 Z" id="path-1"></path>
    </defs>
    <g id="Website-Design" stroke="none" stroke-width="1" fill="none" fill-rule="evenodd">
        <g id="Home" transform="translate(-1312.000000, -30.000000)">
            <g id="Navbar">
                <mask id="mask-2" fill="white">
                    <use xlink:href="#path-1"></use>
                </mask>
                <use id="Search" fill="#445870" fill-rule="nonzero" xlink:href="#path-1"></use>
            </g>
        </g>
    </g>
</svg>