<?xml version="1.0" encoding="UTF-8"?>
<svg width="25px" height="25px" viewBox="0 0 25 25" version="1.1" xmlns="http://www.w3.org/2000/svg" xmlns:xlink="http://www.w3.org/1999/xlink">
    <!-- Generator: Sketch 52.2 (67145) - http://www.bohemiancoding.com/sketch -->
    <title>slack-2</title>
    <desc>Created with Sketch.</desc>
    <g id="Website-Design" stroke="none" stroke-width="1" fill="none" fill-rule="evenodd">
        <g id="Square" transform="translate(-325.000000, -313.000000)" fill-rule="nonzero">
            <g id="slack-2" transform="translate(325.000000, 313.000000)">
                <path d="M5.25208333,15.796875 C5.24922454,17.2459436 4.07614752,18.4204172 2.62708333,18.425 C1.17720542,18.4215617 0.00286356936,17.2467542 0,15.796875 C0.00401075182,14.3479792 1.17818484,13.1747363 2.62708333,13.171875 L5.25208333,13.171875 L5.25208333,15.796875 Z M6.57604167,15.796875 C6.58005005,14.3483847 7.75359158,13.1753087 9.20208333,13.171875 C10.6505751,13.1753087 11.8241166,14.3483847 11.828125,15.796875 L11.828125,22.3729167 C11.8246913,23.8219837 10.6511489,24.9959916 9.20208333,25 C7.75301777,24.9959916 6.57947537,23.8219837 6.57604167,22.3729167 L6.57604167,15.796875 Z" id="Shape" fill="#E11E5A"></path>
                <path d="M19.7458333,9.20208333 C19.7498417,7.75301777 20.9238496,6.57947537 22.3729167,6.57604167 C23.8219837,6.57947537 24.9959916,7.75301777 25,9.20208333 C24.9959916,10.6511489 23.8219837,11.8246913 22.3729167,11.828125 L19.7458333,11.828125 L19.7458333,9.20208333 Z M18.425,9.20208333 C18.4209892,10.6515544 17.2463488,11.8252637 15.796875,11.828125 C14.3483847,11.8241166 13.1753087,10.6505751 13.171875,9.20208333 L13.171875,2.62708333 C13.1747363,1.17818484 14.3479792,0.00401075182 15.796875,0 C17.2467542,0.00286356936 18.4215617,1.17720542 18.425,2.62708333 L18.425,9.20208333 Z" id="Shape" fill="#2EB77C"></path>
                <path d="M15.796875,19.7458333 C17.2467542,19.7486969 18.4215617,20.9230388 18.425,22.3729167 C18.4215617,23.8227946 17.2467542,24.9971364 15.796875,25 C14.3479792,24.9959892 13.1747363,23.8218152 13.171875,22.3729167 L13.171875,19.7458333 L15.796875,19.7458333 Z M15.796875,18.425 C14.3475735,18.4209871 13.1741636,17.2461802 13.171875,15.796875 C13.1753111,14.3485532 14.3485532,13.1753111 15.796875,13.171875 L22.3729167,13.171875 C23.8218152,13.1747363 24.9959892,14.3479792 25,15.796875 C24.9971364,17.2467542 23.8227946,18.4215617 22.3729167,18.425 L15.796875,18.425 Z" id="Shape" fill="#EDB32E"></path>
                <path d="M9.20208333,5.25208333 C7.75382818,5.24808035 6.58061924,4.07533679 6.57604167,2.62708333 C6.57947537,1.17801629 7.75301777,0.00400839132 9.20208333,-4.17443857e-14 C10.6511489,0.00400839132 11.8246913,1.17801629 11.828125,2.62708333 L11.828125,5.25208333 L9.20208333,5.25208333 Z M9.20208333,6.57604167 C10.6507436,6.58004747 11.8241192,7.75342307 11.828125,9.20208333 C11.8241192,10.6507436 10.6507436,11.8241192 9.20208333,11.828125 L2.62708333,11.828125 C1.17801629,11.8246913 0.00400839132,10.6511489 8.8817842e-15,9.20208333 C0.00400839132,7.75301777 1.17801629,6.57947537 2.62708333,6.57604167 L9.20208333,6.57604167 Z" id="Combined-Shape" fill="#36C5F1"></path>
            </g>
        </g>
    </g>
</svg>