<?xml version="1.0" encoding="UTF-8"?>
<svg width="25px" height="25px" viewBox="0 0 25 25" version="1.1" xmlns="http://www.w3.org/2000/svg" xmlns:xlink="http://www.w3.org/1999/xlink">
    <!-- Generator: Sketch 52.2 (67145) - http://www.bohemiancoding.com/sketch -->
    <title>whatsapp</title>
    <desc>Created with Sketch.</desc>
    <g id="Website-Design" stroke="none" stroke-width="1" fill="none" fill-rule="evenodd">
        <g id="Square" transform="translate(-365.000000, -313.000000)" fill="#25D366" fill-rule="nonzero">
            <g id="whatsapp" transform="translate(365.000000, 313.000000)">
                <path d="M18.2270833,14.98125 C17.9135417,14.825 16.3864583,14.078125 16.1020833,13.975 C15.8177083,13.8697917 15.609375,13.81875 15.4010417,14.13125 C15.1958333,14.4385417 14.5979167,15.1354167 14.4177083,15.3416667 C14.2354167,15.5447917 14.0541667,15.5604167 13.7447917,15.4197917 C13.4322917,15.2635417 12.4291667,14.9354167 11.2416667,13.8729167 C10.3166667,13.0447917 9.69583333,12.0291667 9.5125,11.7166667 C9.33125,11.4041667 9.49270833,11.2322917 9.64791667,11.0760417 C9.78958333,10.9354167 9.96145833,10.7166667 10.1177083,10.53125 C10.2697917,10.3427083 10.3197917,10.2177083 10.4270833,10.0145833 C10.53125,9.79583333 10.478125,9.62395833 10.4010417,9.46875 C10.3229167,9.3125 9.70104167,7.78125 9.440625,7.17083333 C9.190625,6.5625 8.93333333,6.63958333 8.740625,6.63958333 C8.56145833,6.62395833 8.35416667,6.62395833 8.14583333,6.62395833 C7.9375,6.62395833 7.60104167,6.70104167 7.315625,6.99791667 C7.03125,7.31041667 6.22708333,8.06041667 6.22708333,9.57604167 C6.22708333,11.0916667 7.34166667,12.5604167 7.496875,12.7791667 C7.65208333,12.9822917 9.68958333,16.1072917 12.809375,17.4510417 C13.553125,17.7635417 14.1322917,17.9510417 14.584375,18.10625 C15.328125,18.3427083 16.00625,18.309375 16.5427083,18.2322917 C17.140625,18.1375 18.3833333,17.48125 18.6427083,16.746875 C18.9083333,16.0125 18.9083333,15.403125 18.8302083,15.2625 C18.753125,15.121875 18.5489583,15.04375 18.2364583,14.903125 M12.5635417,22.65625 L12.546875,22.65625 C10.703125,22.65625 8.87604167,22.15625 7.28125,21.21875 L6.90625,20.9958333 L3,22.0114583 L4.046875,18.2145833 L3.79791667,17.8239583 C2.76666667,16.1822917 2.21875,14.2916667 2.21875,12.3447917 C2.21875,6.67291667 6.859375,2.04791667 12.575,2.04791667 C15.3395833,2.04791667 17.934375,3.12604167 19.8885417,5.07916667 C21.8416667,7.015625 22.91875,9.61041667 22.91875,12.3604167 C22.9145833,18.03125 18.2729167,22.6572917 12.5697917,22.6572917 M21.375,3.59270833 C19,1.296875 15.875,0 12.546875,0 C5.690625,0 0.108333333,5.55625 0.105208333,12.3885417 C0.105208333,14.571875 0.677083333,16.7010417 1.76666667,18.58125 L0,25 L6.59895833,23.2791667 C8.41770833,24.2614583 10.4635417,24.7833333 12.546875,24.7864583 L12.553125,24.7864583 C19.4125,24.7864583 24.996875,19.228125 25,12.3947917 C25,9.08645833 23.7083333,5.97291667 21.359375,3.63333333" id="Shape"></path>
            </g>
        </g>
    </g>
</svg>