<?xml version="1.0" encoding="UTF-8"?>
<svg width="14px" height="14px" viewBox="0 0 14 14" version="1.1" xmlns="http://www.w3.org/2000/svg" xmlns:xlink="http://www.w3.org/1999/xlink">
    <!-- Generator: Sketch 52.2 (67145) - http://www.bohemiancoding.com/sketch -->
    <title>x</title>
    <desc>Created with Sketch.</desc>
    <defs>
        <path d="M8.41421356,7 L13.7071068,12.2928932 C14.0976311,12.6834175 14.0976311,13.3165825 13.7071068,13.7071068 C13.3165825,14.0976311 12.6834175,14.0976311 12.2928932,13.7071068 L7,8.41421356 L1.70710678,13.7071068 C1.31658249,14.0976311 0.683417511,14.0976311 0.292893219,13.7071068 C-0.0976310729,13.3165825 -0.0976310729,12.6834175 0.292893219,12.2928932 L5.58578644,7 L0.292893219,1.70710678 C-0.0976310729,1.31658249 -0.0976310729,0.683417511 0.292893219,0.292893219 C0.683417511,-0.0976310729 1.31658249,-0.0976310729 1.70710678,0.292893219 L7,5.58578644 L12.2928932,0.292893219 C12.6834175,-0.0976310729 13.3165825,-0.0976310729 13.7071068,0.292893219 C14.0976311,0.683417511 14.0976311,1.31658249 13.7071068,1.70710678 L8.41421356,7 Z" id="path-1"></path>
    </defs>
    <g id="Website-Design" stroke="none" stroke-width="1" fill="none" fill-rule="evenodd">
        <g id="Square" transform="translate(-570.000000, -16.000000)">
            <g id="x" transform="translate(570.000000, 16.000000)">
                <mask id="mask-2" fill="white">
                    <use xlink:href="#path-1"></use>
                </mask>
                <use id="Combined-Shape" fill-opacity="0.5" fill="#445870" fill-rule="nonzero" xlink:href="#path-1"></use>
            </g>
        </g>
    </g>
</svg>