<?xml version="1.0" encoding="UTF-8"?>
<svg width="31px" height="25px" viewBox="0 0 31 25" version="1.1" xmlns="http://www.w3.org/2000/svg" xmlns:xlink="http://www.w3.org/1999/xlink">
    <!-- Generator: Sketch 52.2 (67145) - http://www.bohemiancoding.com/sketch -->
    <title>mail-2</title>
    <desc>Created with Sketch.</desc>
    <g id="Website-Design" stroke="none" stroke-width="1" fill="none" fill-rule="evenodd">
        <g id="Square" transform="translate(-279.000000, -313.000000)" fill="#D14836" fill-rule="nonzero">
            <g id="mail-2" transform="translate(279.000000, 313.000000)">
                <path d="M30.5056317,4.14257145 C30.5058523,4.15628012 30.5058745,4.1699846 30.5056991,4.18368018 L30.5056991,20.8333333 C30.5056991,23.1281732 28.6732793,25 26.4267518,25 L4.67236577,25 C2.42583826,25 0.5934184,23.1281732 0.5934184,20.8333333 L0.5934184,4.18368018 C0.593242955,4.1699846 0.593265139,4.15628012 0.593485765,4.14257145 C0.606258418,1.85873873 2.43370601,0 4.67236577,0 L26.4267518,0 C28.6654115,0 30.4928591,1.85873873 30.5056317,4.14257145 Z M27.641493,3.54715083 C27.416634,3.09294892 26.9542429,2.77777777 26.4267518,2.77777777 L4.67236577,2.77777777 C4.14487462,2.77777777 3.68248348,3.09294892 3.45762448,3.54715083 L15.5495587,12.1935339 L27.641493,3.54715083 Z M27.7864008,6.83424383 L16.3292663,15.026711 C15.8611117,15.3614667 15.2380058,15.3614667 14.7698512,15.026711 L3.31271665,6.83424383 L3.31271665,20.8333333 C3.31271665,21.594049 3.92766521,22.2222223 4.67236577,22.2222223 L26.4267518,22.2222223 C27.1714523,22.2222223 27.7864008,21.594049 27.7864008,20.8333333 L27.7864008,6.83424383 Z" id="path-1"></path>
            </g>
        </g>
    </g>
</svg>