<?xml version="1.0" encoding="UTF-8"?>
<svg width="31px" height="30px" viewBox="0 0 31 30" version="1.1" xmlns="http://www.w3.org/2000/svg" xmlns:xlink="http://www.w3.org/1999/xlink">
    <!-- Generator: Sketch 52.2 (67145) - http://www.bohemiancoding.com/sketch -->
    <title>slack</title>
    <desc>Created with Sketch.</desc>
    <defs>
        <path d="M11.4614889,18.1819692 L10.2448746,14.6476708 L7.87855569,15.4622306 C7.22579187,15.686932 6.51446577,15.3399189 6.28976438,14.687155 C6.06506299,14.0343912 6.41207615,13.3230651 7.06483997,13.0983637 L9.43115891,12.2838039 L8.61476438,9.91215504 C8.39006299,9.25939122 8.73707615,8.54806512 9.38983997,8.32336373 C10.0426038,8.09866234 10.7539299,8.4456755 10.9786313,9.09843932 L11.7950258,11.4700882 L15.3293242,10.253474 L14.5147644,7.88715504 C14.290063,7.23439122 14.6370761,6.52306512 15.28984,6.29836373 C15.9426038,6.07366234 16.6539299,6.4206755 16.8786313,7.07343932 L17.6931911,9.43975826 L20.06484,8.62336373 C20.7176038,8.39866234 21.4289299,8.7456755 21.6536313,9.39843932 C21.8783327,10.0512031 21.5313195,10.7625292 20.8785557,10.9872306 L18.5069068,11.8036252 L19.723521,15.3379235 L22.08984,14.5233637 C22.7426038,14.2986623 23.4539299,14.6456755 23.6786313,15.2984393 C23.9033327,15.9512031 23.5563195,16.6625292 22.9035557,16.8872306 L20.5372368,17.7017904 L21.3536313,20.0734393 C21.5783327,20.7262031 21.2313195,21.4375292 20.5785557,21.6622306 C19.9257919,21.886932 19.2144658,21.5399189 18.9897644,20.887155 L18.1733699,18.5155061 L14.6390715,19.7321204 L15.4536313,22.0984393 C15.6783327,22.7512031 15.3313195,23.4625292 14.6785557,23.6872306 C14.0257919,23.911932 13.3144658,23.5649189 13.0897644,22.912155 L12.2752046,20.5458361 L9.90355569,21.3622306 C9.25079187,21.586932 8.53946577,21.2399189 8.31476438,20.587155 C8.09006299,19.9343912 8.43707615,19.2230651 9.08983997,18.9983637 L11.4614889,18.1819692 Z M13.8253558,17.3682535 L17.3596541,16.1516392 L16.1430399,12.6173409 L12.6087415,13.8339551 L13.8253558,17.3682535 Z M28.7817842,10.8846257 C31.8113379,20.9475414 29.2018195,25.7468245 19.0945476,28.7897299 C9.02945359,31.8199373 4.23017053,29.2104189 1.18726507,19.103147 C-1.84294228,9.03805294 0.76657615,4.23876989 10.873848,1.19586442 C20.9676407,-1.84298298 25.7482854,0.741781442 28.7817842,10.8846257 Z M26.3872651,11.603147 C23.748678,2.78074187 20.3626352,0.950000669 11.5945476,3.58972994 C2.80399,6.23622408 0.950592862,9.64489036 3.58113059,18.3824474 C6.22762473,27.173005 9.63629101,29.0264021 18.373848,26.3958644 C27.1644057,23.7493703 29.0178028,20.340704 26.3872651,11.603147 Z" id="path-1"></path>
    </defs>
    <g id="Website-Design" stroke="none" stroke-width="1" fill="none" fill-rule="evenodd">
        <g id="Home" transform="translate(-961.000000, -3443.000000)">
            <g id="Footer" transform="translate(-145.000000, 3107.000000)">
                <g id="Share" transform="translate(966.000000, 257.000000)">
                    <g id="slack" transform="translate(140.363636, 79.000000)">
                        <mask id="mask-2" fill="white">
                            <use xlink:href="#path-1"></use>
                        </mask>
                        <use id="Combined-Shape" fill="#FFFFFF" fill-rule="nonzero" xlink:href="#path-1"></use>
                    </g>
                </g>
            </g>
        </g>
    </g>
</svg>