<?xml version="1.0" encoding="UTF-8"?>
<svg width="36px" height="30px" viewBox="0 0 36 30" version="1.1" xmlns="http://www.w3.org/2000/svg" xmlns:xlink="http://www.w3.org/1999/xlink">
    <!-- Generator: Sketch 52.2 (67145) - http://www.bohemiancoding.com/sketch -->
    <title>Shape</title>
    <desc>Created with Sketch.</desc>
    <defs>
        <path d="M33.6384004,0.289718536 C34.7709608,-0.509160926 36.2883586,0.523782278 35.960414,1.87039055 C35.4466027,3.98020587 34.4166613,5.92486504 32.9682899,7.53198388 C32.9906047,7.77494618 33.0022006,8.01949726 33.0030099,8.26546342 C33.0030099,26.0546207 15.8339097,35.1930128 0.774545472,26.8266993 C-0.606477509,26.0594643 -0.0159584147,23.9538587 1.56262685,24.0166486 C4.09252614,24.1172781 6.59693012,23.6143041 8.87424467,22.5653248 C5.56803393,20.5274259 3.45100703,17.8294343 2.41244886,14.6377677 C1.34013708,11.3423705 1.49665539,7.87932622 2.39123739,4.59042178 C2.66184399,3.59554458 2.93688564,2.84592126 3.13229255,2.40625572 C3.60579957,1.34086492 5.0605031,1.19929499 5.73054464,2.15339708 C8.2379265,5.72377012 12.2024742,7.95255808 16.5025875,8.27522212 C16.4795459,4.84841153 18.5860211,1.76412078 21.7912495,0.54075119 C24.689837,-0.565579915 27.9323903,0.0616609361 30.2022209,2.09301939 C31.4203627,1.64524982 32.5757752,1.03926749 33.6384004,0.289718536 Z M30.2255092,5.24675877 C29.6605631,5.41687617 29.0483612,5.24000968 28.6611787,4.79482013 C27.2237672,3.14205836 24.9074044,2.56247118 22.8610147,3.34353596 C20.8146249,4.12460074 19.4735129,6.1001707 19.5030099,8.31046342 L19.5030099,9.81046342 C19.5030099,10.623745 18.8548999,11.2888782 18.0418916,11.3099594 C13.1507893,11.4367851 8.47793343,9.51141377 5.10909984,6.08035278 C4.51654851,8.63799032 4.47322145,11.2755447 5.26521811,13.7094857 C6.28075819,16.8304137 8.605528,19.3639952 12.6122176,21.1447461 C13.6873623,21.6225882 13.8189185,23.0957607 12.8454547,23.7565463 C11.1668012,24.8960134 9.32748717,25.7511918 7.40101189,26.3010817 C18.919741,29.3314544 30.0030109,21.6847747 30.0030181,8.27042247 C30.0019437,7.94545172 29.9706985,7.62128261 29.9096847,7.30208914 C29.815679,6.81029785 29.9732525,6.30402794 30.3297508,5.9524534 C30.6638945,5.62292481 30.973379,5.27170106 31.2565436,4.90171219 C30.9167868,5.02704554 30.572958,5.14213449 30.2255092,5.24675877 Z" id="path-1"></path>
    </defs>
    <g id="Website-Design" stroke="none" stroke-width="1" fill="none" fill-rule="evenodd">
        <g id="Home" transform="translate(-878.000000, -3443.000000)">
            <g id="Footer" transform="translate(-145.000000, 3107.000000)">
                <g id="Share" transform="translate(966.000000, 257.000000)">
                    <g id="twitter" transform="translate(57.000000, 79.000000)">
                        <mask id="mask-2" fill="white">
                            <use xlink:href="#path-1"></use>
                        </mask>
                        <use id="Shape" fill="#FFFFFF" fill-rule="nonzero" xlink:href="#path-1"></use>
                    </g>
                </g>
            </g>
        </g>
    </g>
</svg>