<?xml version="1.0" encoding="UTF-8"?>
<svg xmlns="http://www.w3.org/2000/svg" xmlns:xlink="http://www.w3.org/1999/xlink" width="512" height="512" viewBox="0 0 60 60" version="1.1"><!-- Generator: Sketch 51.3 (57544) - http://www.bohemiancoding.com/sketch --><title>021 - Buddhism</title><desc>Created with Sketch.</desc><defs/><g id="Page-1" stroke="none" stroke-width="1" fill="none" fill-rule="evenodd"><g id="021---Buddhism" transform="translate(-1.000000, -1.000000)" fill="#000000" fill-rule="nonzero"><path d="M57,27 C56.2035914,26.9988199 55.425228,27.2371371 54.766,27.684 C54.2031017,23.6351364 52.6106509,19.7984492 50.141,16.541 C51.5936548,16.2605212 52.772861,15.20112 53.206779,13.786698 C53.6406971,12.372276 53.2584548,10.8338518 52.213,9.787 C50.6308708,8.27486121 48.1391292,8.27486121 46.557,9.787 C45.9893779,10.3506406 45.6058622,11.0730447 45.457,11.859 C42.2001245,9.38966298 38.3641646,7.79722832 34.316,7.234 C35.4411086,5.56619966 35.1524289,3.32226333 33.6418218,1.99354462 C32.1312146,0.66482591 29.8687854,0.66482591 28.3581782,1.99354462 C26.8475711,3.32226333 26.5588914,5.56619966 27.684,7.234 C23.6351364,7.79689834 19.7984492,9.38934907 16.541,11.859 C16.3921378,11.0730447 16.0086221,10.3506406 15.441,9.787 C13.8588708,8.27486121 11.3671292,8.27486121 9.785,9.787 C8.73954522,10.8338518 8.35730294,12.372276 8.79122098,13.786698 C9.22513901,15.20112 10.4043452,16.2605212 11.857,16.541 C9.38806402,19.7986543 7.79630859,23.6353255 7.234,27.684 C5.56619966,26.5588914 3.32226333,26.8475711 1.99354462,28.3581782 C0.66482591,29.8687854 0.66482591,32.1312146 1.99354462,33.6418218 C3.32226333,35.1524289 5.56619966,35.4411086 7.234,34.316 C7.7991003,38.378078 9.40049826,42.2262545 11.884,45.49 C11.0907566,45.6207194 10.3572931,45.9933887 9.784,46.557 C8.56817761,47.7702548 8.26264602,49.6242741 9.02487553,51.1635004 C9.78710504,52.7027266 11.4469155,53.5835026 13.1488442,53.3518782 C14.850773,53.1202538 16.2148367,51.827943 16.538,50.141 C19.7954492,52.6106509 23.6321364,54.2031017 27.681,54.766 C26.5558914,56.4338003 26.8445711,58.6777367 28.3551782,60.0064554 C29.8657854,61.3351741 32.1282146,61.3351741 33.6388218,60.0064554 C35.1494289,58.6777367 35.4381086,56.4338003 34.313,54.766 C38.3618636,54.2031017 42.1985508,52.6106509 45.456,50.141 C45.7791633,51.827943 47.143227,53.1202538 48.8451558,53.3518782 C50.5470845,53.5835026 52.206895,52.7027266 52.9691245,51.1635004 C53.731354,49.6242741 53.4258224,47.7702548 52.21,46.557 C51.6367069,45.9933887 50.9032434,45.6207194 50.11,45.49 C52.5935017,42.2262545 54.1948997,38.378078 54.76,34.316 C56.1820947,35.2753529 58.057575,35.2211216 59.4218585,34.1811977 C60.7861421,33.1412738 61.3354429,31.3472181 60.7872489,29.7217352 C60.2390549,28.0962523 58.7154328,27.0012897 57,27 Z M47.971,11.2 C48.7522068,10.4187932 50.0187932,10.4187932 50.8,11.2 C51.5812068,11.9812068 51.5812068,13.2477932 50.8,14.029 C50.008833,14.784814 48.763167,14.784814 47.972,14.029 C47.1912361,13.2480003 47.1912361,11.9819997 47.972,11.201 L47.971,11.2 Z M29,5 C29,3.8954305 29.8954305,3 31,3 C32.1045695,3 33,3.8954305 33,5 C33,6.1045695 32.1045695,7 31,7 C29.8954305,7 29,6.1045695 29,5 Z M10.615,12.615 C10.6148067,11.7096983 11.2227514,10.9171587 12.0971841,10.6827689 C12.9716168,10.4483792 13.8944525,10.8305964 14.3470802,11.614624 C14.799708,12.3986516 14.6692416,13.3889517 14.029,14.029 C13.237833,14.784814 11.992167,14.784814 11.201,14.029 C10.8245879,13.6548938 10.6135629,13.1456972 10.615,12.615 Z M5,33 C3.8954305,33 3,32.1045695 3,31 C3,29.8954305 3.8954305,29 5,29 C6.1045695,29 7,29.8954305 7,31 C7,32.1045695 6.1045695,33 5,33 Z M14.029,50.8 C13.237833,51.555814 11.992167,51.555814 11.201,50.8 C10.6288788,50.2280515 10.4576566,49.3677685 10.7671832,48.6203456 C11.0767098,47.8729226 11.8060205,47.3855729 12.615,47.3855729 C13.4239795,47.3855729 14.1532902,47.8729226 14.4628168,48.6203456 C14.7723434,49.3677685 14.6011212,50.2280515 14.029,50.8 Z M33,57 C33,58.1045695 32.1045695,59 31,59 C29.8954305,59 29,58.1045695 29,57 C29,55.8954305 29.8954305,55 31,55 C32.1045695,55 33,55.8954305 33,57 Z M51.385,49.385 C51.3869691,49.9158989 51.1762923,50.4254848 50.8,50.8 C50.008833,51.555814 48.763167,51.555814 47.972,50.8 C47.3317584,50.1599517 47.201292,49.1696516 47.6539198,48.385624 C48.1065475,47.6015964 49.0293832,47.2193792 49.9038159,47.4537689 C50.7782486,47.6881587 51.3861933,48.4806983 51.386,49.386 L51.385,49.385 Z M31,53 C18.8497355,53 9,43.1502645 9,31 C9,18.8497355 18.8497355,9 31,9 C43.1502645,9 53,18.8497355 53,31 C52.9862228,43.1445532 43.1445532,52.9862228 31,53 Z M57,33 C55.8954305,33 55,32.1045695 55,31 C55,29.8954305 55.8954305,29 57,29 C58.1045695,29 59,29.8954305 59,31 C59,32.1045695 58.1045695,33 57,33 Z" id="Shape"/><path d="M47.224,19.343 C47.207,19.31 47.176,19.29 47.156,19.259 C45.9228508,17.567343 44.433657,16.0781492 42.742,14.845 C42.7150195,14.8203818 42.6866389,14.7973434 42.657,14.776 L42.644,14.776 C40.1527664,12.9817183 37.2796033,11.7891878 34.25,11.292 C34.24,11.292 34.233,11.281 34.223,11.278 C34.1637093,11.2663983 34.1034144,11.2607038 34.043,11.261 C33.0368232,11.0963943 32.0195113,11.0091388 31,11 C29.9809714,11.0079842 28.9640307,11.0935651 27.958,11.256 C27.8972481,11.256544 27.8366692,11.2625684 27.777,11.274 C27.767,11.274 27.76,11.285 27.75,11.288 C24.7203967,11.7851878 21.8472336,12.9777183 19.356,14.772 L19.343,14.772 C19.3134902,14.7930978 19.2854273,14.8161495 19.259,14.841 C17.5668068,16.0738577 16.077241,17.5630861 14.844,19.255 C14.8194658,19.2814352 14.7967473,19.3094992 14.776,19.339 L14.776,19.352 C12.9817183,21.8432336 11.7891878,24.7163967 11.292,27.746 C11.292,27.756 11.281,27.763 11.278,27.773 C11.2652475,27.8355263 11.2588814,27.8991866 11.259,27.963 C11.0953577,28.9672487 11.0087718,29.9825437 11,31 C11.0076528,32.0160179 11.0929008,33.0299672 11.255,34.033 C11.2548814,34.0968134 11.2612475,34.1604737 11.274,34.223 C11.274,34.233 11.285,34.24 11.288,34.25 C11.7851878,37.2796033 12.9777183,40.1527664 14.772,42.644 L14.772,42.657 C14.8225949,42.7495233 14.8873814,42.8335432 14.964,42.906 C16.1725001,44.5300784 17.6191135,45.9625325 19.255,47.155 C19.2814273,47.1798505 19.3094902,47.2029022 19.339,47.224 L19.355,47.23 C21.8455925,49.0230498 24.7176454,50.2148611 27.746,50.712 C27.756,50.712 27.763,50.723 27.773,50.726 C27.8678887,50.755473 27.9666401,50.7706396 28.066,50.771 C28.077,50.771 28.087,50.766 28.098,50.766 C29.0583908,50.9141694 30.0282766,50.9923752 31,51 C31.9710555,50.9922784 32.9402694,50.9140729 33.9,50.766 C33.911,50.766 33.921,50.771 33.932,50.771 C34.0313599,50.7706396 34.1301113,50.755473 34.225,50.726 C34.235,50.726 34.242,50.715 34.252,50.712 C37.2803546,50.2148611 40.1524075,49.0230498 42.643,47.23 L42.659,47.224 C42.6886389,47.2026566 42.7170195,47.1796182 42.744,47.155 C44.3793531,45.9622451 45.8255962,44.529824 47.034,42.906 C47.1106186,42.8335432 47.1754051,42.7495233 47.226,42.657 L47.226,42.644 C49.0202817,40.1527664 50.2128122,37.2796033 50.71,34.25 C50.71,34.24 50.721,34.233 50.724,34.223 C50.7367525,34.1604737 50.7431186,34.0968134 50.743,34.033 C50.9057692,33.0300186 50.9916858,32.016069 51,31 C50.9923472,29.9839821 50.9070992,28.9700328 50.745,27.967 C50.7451186,27.9031866 50.7387525,27.8395263 50.726,27.777 C50.726,27.767 50.715,27.76 50.712,27.75 C50.2148122,24.7203967 49.0222817,21.8472336 47.228,19.356 L47.224,19.343 Z M49,31 C49,31.56 48.966,32.112 48.916,32.66 C46.89,32.15 43.799,31.66 41.916,32.808 C40.6663882,32.137831 39.3506955,31.5989533 37.99,31.2 C37.99,31.135 38,31.071 38,31 C38,30.929 37.992,30.87 37.99,30.8 C39.3508901,30.3994468 40.6665892,29.8588909 41.916,29.187 C43.8,30.331 46.89,29.845 48.916,29.335 C48.966,29.887 49,30.44 49,31 Z M46.034,40.873 C43.921,39.63 41.9,37.917 41.9,36.66 C41.8999879,36.2013206 41.5879311,35.8014591 41.143,35.69 C39.7901947,35.3251422 38.4821569,34.8109827 37.243,34.157 C37.404345,33.8412144 37.5414079,33.5136006 37.653,33.177 C38.988834,33.5982902 40.2755486,34.1618565 41.491,34.858 C41.8842419,35.0930818 42.386939,35.0308628 42.711,34.707 C43.601,33.817 46.25,34.035 48.631,34.65 C48.1672296,36.8700768 47.2859407,38.9818446 46.034,40.873 Z M35.69,41.144 C35.8018468,41.588534 36.2016114,41.900103 36.66,41.9 C37.917,41.9 39.63,43.921 40.873,46.034 C38.9815444,47.2845314 36.869794,48.1644556 34.65,48.627 C34.035,46.246 33.818,43.597 34.707,42.707 C35.031366,42.3827789 35.0936095,41.8794728 34.858,41.486 C34.1600911,40.2716575 33.5961184,38.9851157 33.176,37.649 C33.5131541,37.5380242 33.841147,37.4009425 34.157,37.239 C34.8102032,38.4802603 35.3243198,39.7898658 35.69,41.144 Z M27.29,42.707 C28.179,43.597 27.962,46.246 27.347,48.627 C25.127206,48.1644556 23.0154556,47.2845314 21.124,46.034 C22.37,43.921 24.083,41.9 25.34,41.9 C25.7986794,41.8999879 26.1985409,41.5879311 26.31,41.143 C26.6748578,39.7901947 27.1890173,38.4821569 27.843,37.243 C28.1587856,37.404345 28.4863994,37.5414079 28.823,37.653 C28.4017098,38.988834 27.8381435,40.2755486 27.142,41.491 C26.9090217,41.883315 26.9711438,42.383583 27.293,42.707 L27.29,42.707 Z M13.373,34.65 C15.755,34.036 18.403,33.818 19.293,34.707 C19.6172211,35.031366 20.1205272,35.0936095 20.514,34.858 C21.7283425,34.1600911 23.0148843,33.5961184 24.351,33.176 C24.4619758,33.5131541 24.5990575,33.841147 24.761,34.157 C23.5213295,34.8098624 22.2134185,35.323972 20.861,35.69 C20.416466,35.8018468 20.104897,36.2016114 20.105,36.66 C20.105,37.917 18.084,39.63 15.971,40.873 C14.718707,38.9819197 13.8370769,36.8701475 13.373,34.65 Z M13,31 C13,30.44 13.034,29.888 13.084,29.34 C15.11,29.85 18.199,30.34 20.084,29.193 C21.33278,29.8662243 22.648621,30.4068385 24.01,30.806 C24.01,30.871 24,30.934 24,31 C24,31.066 24.008,31.13 24.01,31.2 C22.6491099,31.6005532 21.3334108,32.1411091 20.084,32.813 C18.2,31.669 15.11,32.155 13.084,32.665 C13.034,32.112 13,31.56 13,31 Z M15.966,21.127 C18.079,22.37 20.1,24.083 20.1,25.34 C20.1000121,25.7986794 20.4120689,26.1985409 20.857,26.31 C22.2098053,26.6748578 23.5178431,27.1890173 24.757,27.843 C24.5950575,28.158853 24.4579758,28.4868459 24.347,28.824 C23.0111865,28.4043548 21.7249612,27.8407092 20.511,27.143 C20.1175183,26.9066052 19.6136269,26.9684577 19.289,27.293 C18.399,28.182 15.75,27.965 13.369,27.35 C13.8327704,25.1299232 14.7140593,23.0181554 15.966,21.127 Z M26.31,20.856 C26.1981532,20.411466 25.7983886,20.099897 25.34,20.1 C24.083,20.1 22.37,18.079 21.127,15.966 C23.0184556,14.7154686 25.130206,13.8355444 27.35,13.373 C27.965,15.754 28.182,18.403 27.293,19.293 C26.968634,19.6172211 26.9063905,20.1205272 27.142,20.514 C27.8399089,21.7283425 28.4038816,23.0148843 28.824,24.351 C28.4868459,24.4619758 28.158853,24.5990575 27.843,24.761 C27.1897968,23.5197397 26.6756802,22.2101342 26.31,20.856 Z M34.71,19.293 C33.821,18.403 34.038,15.754 34.653,13.373 C36.872794,13.8355444 38.9845444,14.7154686 40.876,15.966 C39.63,18.079 37.917,20.1 36.66,20.1 C36.2013206,20.1000121 35.8014591,20.4120689 35.69,20.857 C35.3251422,22.2098053 34.8109827,23.5178431 34.157,24.757 C33.8412144,24.595655 33.5136006,24.4585921 33.177,24.347 C33.5982902,23.011166 34.1618565,21.7244514 34.858,20.509 C35.0909783,20.116685 35.0288562,19.616417 34.707,19.293 L34.71,19.293 Z M31,36 C28.2385763,36 26,33.7614237 26,31 C26,28.2385763 28.2385763,26 31,26 C33.7614237,26 36,28.2385763 36,31 C35.9966939,33.7600532 33.7600532,35.9966939 31,36 Z M42.707,27.293 C42.3827789,26.968634 41.8794728,26.9063905 41.486,27.142 C40.2716575,27.8399089 38.9851157,28.4038816 37.649,28.824 C37.5380242,28.4868459 37.4009425,28.158853 37.239,27.843 C38.4802603,27.1897968 39.7898658,26.6756802 41.144,26.31 C41.588534,26.1981532 41.900103,25.7983886 41.9,25.34 C41.9,24.083 43.921,22.37 46.034,21.127 C47.2845314,23.0184556 48.1644556,25.130206 48.627,27.35 C46.246,27.966 43.6,28.182 42.707,27.293 Z M44.84,19.507 C43.048,20.577 40.52,22.421 39.997,24.557 C38.6378318,24.9654078 37.3255634,25.5161248 36.082,26.2 C35.99,26.1 35.896,26.009 35.799,25.917 C36.4833492,24.6728414 37.0344046,23.3598949 37.443,22 C39.579,21.477 41.423,18.949 42.493,17.157 C43.345322,17.8671637 44.1309256,18.6537715 44.84,19.507 Z M32.66,13.084 C32.15,15.11 31.66,18.2 32.808,20.084 C32.137831,21.3336118 31.5989533,22.6493045 31.2,24.01 C31.135,24.01 31.071,24 31,24 C30.929,24 30.87,24.008 30.8,24.01 C30.3994468,22.6491099 29.8588909,21.3334108 29.187,20.084 C30.331,18.2 29.845,15.11 29.335,13.084 C29.882,13.034 30.435,13 30.995,13 C31.555,13 32.113,13.034 32.66,13.084 Z M19.507,17.16 C20.577,18.952 22.421,21.48 24.557,22.003 C24.9654078,23.3621682 25.5161248,24.6744366 26.2,25.918 C26.1,26.01 26.009,26.104 25.917,26.201 C24.6728414,25.5166508 23.3598949,24.9655954 22,24.557 C21.477,22.421 18.949,20.577 17.157,19.507 C17.8671637,18.654678 18.6537715,17.8690744 19.507,17.16 Z M17.16,42.493 C18.952,41.423 21.48,39.579 22.003,37.443 C23.3621682,37.0345922 24.6744366,36.4838752 25.918,35.8 C26.01,35.9 26.104,35.991 26.201,36.083 C25.5166508,37.3271586 24.9655954,38.6401051 24.557,40 C22.421,40.523 20.577,43.051 19.507,44.843 C18.654678,44.1328363 17.8690744,43.3462285 17.16,42.493 Z M29.34,48.916 C29.85,46.89 30.34,43.8 29.192,41.916 C29.8638909,40.6665892 30.4044468,39.3508901 30.805,37.99 C30.87,37.99 30.934,38 31.005,38 C31.076,38 31.135,37.992 31.205,37.99 C31.6055532,39.3508901 32.1461091,40.6665892 32.818,41.916 C31.674,43.8 32.16,46.89 32.67,48.916 C32.123,48.966 31.57,49 31.01,49 C30.45,49 29.887,48.966 29.34,48.916 Z M42.493,44.84 C41.423,43.048 39.579,40.52 37.443,39.997 C37.0345922,38.6378318 36.4838752,37.3255634 35.8,36.082 C35.9,35.99 35.991,35.896 36.083,35.799 C37.3271586,36.4833492 38.6401051,37.0344046 40,37.443 C40.523,39.579 43.051,41.423 44.843,42.493 C44.1328363,43.345322 43.3462285,44.1309256 42.493,44.84 Z" id="Shape"/><path d="M31,28 C29.3431458,28 28,29.3431458 28,31 C28,32.6568542 29.3431458,34 31,34 C32.6568542,34 34,32.6568542 34,31 C34,29.3431458 32.6568542,28 31,28 Z M31,32 C30.4477153,32 30,31.5522847 30,31 C30,30.4477153 30.4477153,30 31,30 C31.5522847,30 32,30.4477153 32,31 C32,31.5522847 31.5522847,32 31,32 Z" id="Shape"/></g></g></svg>
