<?xml version="1.0" encoding="UTF-8"?>
<svg width="18px" height="30px" viewBox="0 0 18 30" version="1.1" xmlns="http://www.w3.org/2000/svg" xmlns:xlink="http://www.w3.org/1999/xlink">
    <!-- Generator: Sketch 52.2 (67145) - http://www.bohemiancoding.com/sketch -->
    <title>facebook</title>
    <desc>Created with Sketch.</desc>
    <defs>
        <path d="M4.09090909,8.18181818 C4.09090909,3.66312477 7.75403387,6.05576195e-16 12.2727273,0 L16.3636364,0 C17.1167519,0 17.7272727,0.610520796 17.7272727,1.36363636 L17.7272727,6.81818182 C17.7272727,7.57129739 17.1167519,8.18181818 16.3636364,8.18181818 L12.2727273,8.18181818 L12.2727273,10.9090909 L16.3636364,10.9090909 C17.2507788,10.9090909 17.9017216,11.742803 17.686558,12.6034577 L16.3229216,18.0580031 C16.1711601,18.665049 15.6257286,19.0909091 15,19.0909091 L12.2727273,19.0909091 L12.2727273,28.6363636 C12.2727273,29.3894792 11.6622065,30 10.9090909,30 L5.45454545,30 C4.70142989,30 4.09090909,29.3894792 4.09090909,28.6363636 L4.09090909,19.0909091 L1.36363636,19.0909091 C0.610520796,19.0909091 0,18.4803883 0,17.7272727 L0,12.2727273 C0,11.5196117 0.610520796,10.9090909 1.36363636,10.9090909 L4.09090909,10.9090909 L4.09090909,8.18181818 Z M15,2.72727273 L12.2727273,2.72727273 C9.260265,2.72727273 6.81818182,5.16935591 6.81818182,8.18181818 L6.81818182,12.2727273 C6.81818182,13.0258428 6.20766102,13.6363636 5.45454545,13.6363636 L2.72727273,13.6363636 L2.72727273,16.3636364 L5.45454545,16.3636364 C6.20766102,16.3636364 6.81818182,16.9741572 6.81818182,17.7272727 L6.81818182,27.2727273 L9.54545455,27.2727273 L9.54545455,17.7272727 C9.54545455,16.9741572 10.1559753,16.3636364 10.9090909,16.3636364 L13.9353049,16.3636364 L14.6171231,13.6363636 L10.9090909,13.6363636 C10.1559753,13.6363636 9.54545455,13.0258428 9.54545455,12.2727273 L9.54545455,8.18181818 C9.54545455,6.67558705 10.7664961,5.45454545 12.2727273,5.45454545 L15,5.45454545 L15,2.72727273 Z" id="path-1"></path>
    </defs>
    <g id="Website-Design" stroke="none" stroke-width="1" fill="none" fill-rule="evenodd">
        <g id="Home" transform="translate(-821.000000, -3443.000000)">
            <g id="Footer" transform="translate(-145.000000, 3107.000000)">
                <g id="Share" transform="translate(966.000000, 257.000000)">
                    <g id="facebook" transform="translate(0.000000, 79.000000)">
                        <mask id="mask-2" fill="white">
                            <use xlink:href="#path-1"></use>
                        </mask>
                        <use id="Shape" fill="#FFFFFF" fill-rule="nonzero" xlink:href="#path-1"></use>
                    </g>
                </g>
            </g>
        </g>
    </g>
</svg>