<?xml version="1.0" encoding="UTF-8"?>
<svg width="32px" height="42px" viewBox="0 0 32 42" version="1.1" xmlns="http://www.w3.org/2000/svg" xmlns:xlink="http://www.w3.org/1999/xlink">
    <!-- Generator: Sketch 52.2 (67145) - http://www.bohemiancoding.com/sketch -->
    <title>fingerprint</title>
    <desc>Created with Sketch.</desc>
    <g id="Website-Design" stroke="none" stroke-width="1" fill="none" fill-rule="evenodd">
        <g id="Home" transform="translate(-38.000000, -19.000000)">
            <g id="Navbar" transform="translate(-428.000000, 0.000000)">
                <g id="Logo" transform="translate(466.000000, 19.000000)">
                    <g id="fingerprint" transform="translate(0.927835, 0.670103)">
                        <path d="M22.9884979,37.5051546 C22.7981857,37.504992 22.6135011,37.43895 22.4643267,37.3177647 C17.3660821,33.1760736 11.8045408,28.3057253 10.2826768,22.8766231 C9.73773847,20.5470998 11.1364267,18.2054579 13.4066991,17.6462975 C15.5345346,17.1222727 17.7003374,18.3509616 18.3992851,20.4786992 C19.2988495,23.6868568 25.4065973,28.6474841 27.6995391,30.51447 C28.074536,30.8000281 28.1529278,31.34341 27.8746328,31.7281124 C27.5963377,32.1128148 27.0667766,32.1933339 26.691859,31.9077757 C26.6779879,31.8972025 26.6643545,31.8861413 26.6511175,31.8747548 C22.2833676,28.3282543 17.6890026,24.2559398 16.7674822,20.9575846 C16.3803581,19.5757466 14.9748532,18.7775502 13.6282413,19.1747778 C12.2815501,19.5720053 11.5036556,21.0141919 11.8907798,22.3959485 C13.2740116,27.3305495 18.6089378,31.9823576 23.5009381,35.9556906 C23.8670574,36.2531233 23.9288039,36.7987825 23.6389363,37.1743757 C23.4783479,37.3825053 23.23374,37.5036907 22.9750231,37.5033653 L22.9884979,37.5051546 Z" id="Path" fill="#138808"></path>
                        <path d="M1.55644397,33.298952 C1.08314358,33.2980679 0.700148682,32.9135844 0.701032454,32.4401327 C0.701675198,32.0662578 0.944551973,31.7359427 1.30111404,31.6238285 C2.25920387,31.3238124 5.27584107,29.9675916 3.87208883,25.0794907 C2.17122832,19.1644393 5.58596491,12.9900384 11.4991266,11.2886343 C11.5020189,11.2878306 11.5049916,11.2869466 11.507884,11.2861429 C17.2933807,9.66060683 23.3308329,12.8886935 25.1940666,18.6037877 C25.6208484,19.004988 28.5466177,21.4224766 30.5485233,23.0478519 C30.9066922,23.3572712 30.9463013,23.8986343 30.6369809,24.2569981 C30.3408367,24.6000114 29.8289717,24.6531351 29.4687139,24.3783547 C23.9582311,19.9051167 23.7748885,19.5948134 23.6857078,19.4473369 C23.6502766,19.3880249 23.6220762,19.3246944 23.6017494,19.2587117 C22.0813392,14.3481076 16.926374,11.5435636 11.9792561,12.9355484 C6.97533576,14.3737452 4.08443528,19.5973852 5.5221726,24.6028243 C5.52233328,24.6033869 5.52249397,24.6040298 5.52265465,24.6045924 C6.98296834,29.6813185 4.43939049,32.439972 1.8169962,33.2595714 C1.73271643,33.2861734 1.64482123,33.2995146 1.55644397,33.298952 Z" id="Path" fill="#000080"></path>
                        <path d="M4.36233684,36.1030865 C3.88805758,36.1021966 3.50427057,35.7151822 3.50515617,35.238614 C3.50580024,34.862278 3.74917933,34.5297885 4.10647884,34.4169363 C7.66522377,33.2986068 8.96021307,31.4623105 7.22548292,23.5270575 C6.1685591,19.4285386 8.50517549,15.2192707 12.5309539,13.9694826 C16.6316057,12.7967899 20.9047887,15.1727546 22.09415,19.286725 C22.3328595,20.1202946 23.4235167,21.7270033 29.7972632,26.7975078 C30.1781519,27.0815396 30.2577754,27.6220169 29.9751079,28.0046629 C29.6924404,28.3873898 29.1545589,28.4673976 28.7737507,28.1833659 C28.7596616,28.1728492 28.745814,28.1618471 28.732369,28.1505214 C21.6904772,22.5553955 20.7784698,20.9383319 20.4435519,19.7647493 C19.5231715,16.5597452 16.1954878,14.7072694 13.0032204,15.6227883 C9.85024147,16.6285082 8.04361667,19.9496814 8.90345414,23.1594585 C10.6707905,31.2501159 9.59043852,34.5067327 4.60966088,36.0668444 C4.52947379,36.0911946 4.44614684,36.1034101 4.36233684,36.1030865 Z" id="Path" fill="#000080"></path>
                        <path d="M25.7767461,34.7010296 C25.5473325,34.7014297 25.3271571,34.6118148 25.1647605,34.4517882 C24.58446,33.9434638 23.9786332,33.4643443 23.3495489,33.0162699 C20.2533166,30.6965247 15.0704823,26.8149203 13.7081822,22.1344632 C13.5684757,21.6837484 13.8251985,21.2065492 14.2816756,21.0685263 C14.7381527,20.9305834 15.2214528,21.1840654 15.3612403,21.6347803 C15.3641576,21.6442218 15.3669128,21.6537434 15.369506,21.663265 C16.57962,25.7974714 21.4686169,29.4640001 24.3937007,31.655724 C25.087695,32.1482858 25.7531646,32.6787738 26.3869489,33.2448678 C26.7239786,33.5786833 26.7231683,34.119093 26.3850041,34.4518682 C26.2234989,34.6110146 26.0048631,34.7005495 25.7767461,34.7010296 Z" id="Path" fill="#138808"></path>
                        <path d="M12.7605479,41.3608231 L12.7066752,41.3608231 C12.2429593,41.3322517 11.8903807,40.937092 11.9191706,40.478154 C11.9797479,39.513908 12.4239812,34.7010309 15.2846009,34.7010309 C17.0682387,34.9062611 18.6385152,35.9598903 19.4913296,37.5238236 C19.6748756,37.7878359 19.8760899,38.0392799 20.0937106,38.2765943 C20.4165528,38.6073513 20.4072453,39.1345172 20.0730449,39.4540329 C19.7469688,39.7657423 19.2300901,39.7657423 18.904014,39.4540329 C18.6259738,39.1584047 18.3690725,38.8439631 18.1350455,38.5131281 C17.4182145,37.5538782 16.5331395,36.364808 15.284522,36.364808 C14.3724713,36.364808 13.7078566,38.8628546 13.6018463,40.5798713 C13.5743184,41.0193714 13.20557,41.3616818 12.7605479,41.3608231 Z" id="Path" fill="#138808"></path>
                        <path d="M7.55895885,39.6079299 C7.06331263,39.6088294 6.66072102,39.2190639 6.65979552,38.7372954 C6.65903829,38.3577524 6.91085787,38.0213077 7.28257151,37.9051795 C9.55130354,37.1881287 11.0518723,32.6101421 10.2943943,30.2776006 C10.1169511,29.8277265 10.3483256,29.3233048 10.8110745,29.1508299 C11.2738235,28.978355 11.7928596,29.2032511 11.9703028,29.6530435 C11.9833439,29.6860828 11.9942816,29.7198581 12.0031159,29.7542059 C12.9562105,32.6520954 11.2851819,38.477479 7.83534619,39.5730914 C7.74565703,39.5986069 7.65243414,39.6103833 7.55895885,39.6079299 Z" id="Path" fill="#138808"></path>
                        <path d="M0.856566815,22.4329897 C0.383515806,22.4329897 0,22.0406314 0,21.5566736 C0.00947547428,13.3333344 6.52314134,6.66940561 14.561154,6.65979381 C22.4653056,6.65979381 25.2935741,11.330385 27.3578624,14.7409278 C28.3326317,16.3480686 29.1737005,17.7378351 30.2444291,18.0936356 C30.6958792,18.2382233 30.9473005,18.7298212 30.8060517,19.1916801 C30.6648029,19.653539 30.1842036,19.9107571 29.7327535,19.7662516 C29.7268112,19.7643621 29.7209493,19.7623905 29.7150873,19.7603367 C28.0465206,19.2065496 27.0529609,17.5643299 25.901771,15.6628383 C23.9454068,12.4328657 21.5111735,8.4124259 14.561154,8.4124259 C7.46844035,8.4201482 1.72060159,14.3005106 1.71305333,21.5567558 C1.71305333,22.0406314 1.32961782,22.4329897 0.856566815,22.4329897 Z" id="Path" fill="#FF9933"></path>
                        <path d="M1.63558384,28.0412355 C1.32553363,28.0418664 1.04178096,27.8620543 0.902856385,27.5768786 C0.436171023,26.673165 0.130414293,25.690823 0,24.6763041 C0,24.2117106 0.366172053,23.8350515 0.817830253,23.8350515 C1.26948845,23.8350515 1.63566051,24.2117106 1.63566051,24.6763041 C1.77151831,25.4260733 2.01808643,26.1500537 2.3667779,26.8230872 C2.5691079,27.238469 2.40580252,27.7439145 2.0019859,27.9520392 C1.88820882,28.0107147 1.76277802,28.0412355 1.63558384,28.0412355 Z" id="Path" fill="#000080"></path>
                        <path d="M26.4823705,10.4903431 C26.1817253,10.4904986 25.9028998,10.3388853 25.7471827,10.0906284 C24.9020911,8.7437586 20.2025574,5.51431891 13.5998769,5.51431891 C6.7292405,5.51431891 3.05684415,8.90299137 2.30965953,10.0906284 C2.07825774,10.4904208 1.55498695,10.6334038 1.14097581,10.4098714 C0.726964673,10.1864169 0.578896513,9.68111715 0.810378819,9.28132471 C0.820523783,9.26375313 0.831393387,9.24657029 0.8428266,9.22977621 C1.78236296,7.7353362 5.90653225,3.8556701 13.5999574,3.8556701 C20.8347658,3.8556701 26.0376024,7.35544785 27.2158675,9.23140897 C27.461601,9.62319312 27.3318099,10.1331578 26.9260919,10.3703743 C26.7921945,10.4486689 26.6388123,10.4901876 26.4823705,10.4903431 Z" id="Path" fill="#FF9933"></path>
                        <path d="M23.3096704,3.85010034 C23.2143188,3.85027938 23.119612,3.83291249 23.0294189,3.7985368 C22.6854922,3.66676333 22.3519631,3.52926057 22.0235119,3.39560717 C19.424838,2.26711775 16.6385239,1.77081873 13.8524515,1.94036966 C9.72565336,1.94036966 8.79543114,2.46934348 7.51096521,3.2008116 C7.19460422,3.38226869 6.85930187,3.57133498 6.46725605,3.77373975 C6.03233021,3.98733453 5.52381518,3.76890567 5.33149994,3.2857661 C5.13918469,2.80271605 5.33585242,2.23793422 5.77085886,2.02433944 C6.13364633,1.84288235 6.44146356,1.66724406 6.73380529,1.5010949 C8.16786765,0.679927716 9.30789565,0.0305494603 13.8525321,0.0305494603 C16.8429294,-0.138822426 19.8317146,0.39749204 22.6219782,1.60422197 C22.9383392,1.73411552 23.2547808,1.865889 23.5883099,1.98620391 C24.0404039,2.14733995 24.2893014,2.68508674 24.1442186,3.18720456 C24.0281524,3.5884333 23.6890618,3.85788858 23.3096704,3.85010034 Z" id="Path" fill="#FF9933"></path>
                        <path d="M29.9694757,15.7731959 C29.5883719,15.7729494 29.2511373,15.526426 29.1352206,15.1633359 C28.6799333,14.0119623 28.1227774,12.9034695 27.4702428,11.8511653 C27.2166391,11.4388691 27.3452894,10.8990806 27.7576932,10.6454925 C28.1700149,10.3919044 28.7098367,10.5205468 28.9634404,10.9329252 C29.6908156,12.1054105 30.3068746,13.3433672 30.8036487,14.630612 C30.9507832,15.0916215 30.6962759,15.5846683 30.235238,15.7317116 C30.1493889,15.7591487 30.0596788,15.7731959 29.9694757,15.7731959 Z" id="Path" fill="#FF9933"></path>
                    </g>
                </g>
            </g>
        </g>
    </g>
</svg>