<?xml version="1.0" encoding="UTF-8"?>
<svg width="276px" height="199px" viewBox="0 0 276 199" version="1.1" xmlns="http://www.w3.org/2000/svg" xmlns:xlink="http://www.w3.org/1999/xlink">
    <!-- Generator: Sketch 52.2 (67145) - http://www.bohemiancoding.com/sketch -->
    <title>India Icon</title>
    <desc>Created with Sketch.</desc>
    <g id="Website-Design" stroke="none" stroke-width="1" fill="none" fill-rule="evenodd">
        <g id="Home" transform="translate(0.000000, -3423.000000)" fill="#FFFFFF">
            <g id="Footer" transform="translate(-145.000000, 3107.000000)">
                <g id="India-Icon" transform="translate(0.000000, 295.000000)">
                    <path d="M152.410714,26.5000005 C152.410714,29.2121133 150.212112,31.4107141 147.499999,31.4107141 C144.787887,31.4107141 142.589286,29.2121133 142.589286,26.5000005 C142.589286,23.7878878 144.787887,21.589286 147.499999,21.589286 C150.212112,21.589286 152.410714,23.7878878 152.410714,26.5000005 Z" id="Path"></path>
                    <path d="M152.410714,42.5000005 C152.410714,45.2121133 150.212112,47.4107141 147.499999,47.4107141 C144.787887,47.4107141 142.589286,45.2121133 142.589286,42.5000005 C142.589286,39.7878878 144.787887,37.5892859 147.499999,37.5892859 C150.212112,37.5892859 152.410714,39.7878878 152.410714,42.5000005 Z" id="Path"></path>
                    <path d="M152.410714,61.5000005 C152.410714,64.2121133 150.212112,66.410714 147.499999,66.410714 C144.787887,66.410714 142.589286,64.2121133 142.589286,61.5000005 C142.589286,58.7878878 144.787887,56.5892859 147.499999,56.5892859 C150.212112,56.5892859 152.410714,58.7878878 152.410714,61.5000005 Z" id="Path"></path>
                    <path d="M152.410714,77.5000005 C152.410714,80.2121133 150.212112,82.410714 147.499999,82.410714 C144.787887,82.410714 142.589286,80.2121133 142.589286,77.5000005 C142.589286,74.7878879 144.787887,72.589286 147.499999,72.589286 C150.212112,72.589286 152.410714,74.7878879 152.410714,77.5000005 Z" id="Path"></path>
                    <path d="M152.410714,96.5000005 C152.410714,99.2121133 150.212112,101.410714 147.499999,101.410714 C144.787887,101.410714 142.589286,99.2121133 142.589286,96.5000005 C142.589286,93.7878879 144.787887,91.589286 147.499999,91.589286 C150.212112,91.589286 152.410714,93.7878879 152.410714,96.5000005 Z" id="Path"></path>
                    <path d="M152.410714,115.500001 C152.410714,118.212113 150.212112,120.410714 147.499999,120.410714 C144.787887,120.410714 142.589286,118.212113 142.589286,115.500001 C142.589286,112.787888 144.787887,110.589286 147.499999,110.589286 C150.212112,110.589286 152.410714,112.787888 152.410714,115.500001 Z" id="Path"></path>
                    <path d="M152.410714,131.500001 C152.410714,134.212113 150.212112,136.410714 147.499999,136.410714 C144.787887,136.410714 142.589286,134.212113 142.589286,131.500001 C142.589286,128.787888 144.787887,126.589286 147.499999,126.589286 C150.212112,126.589286 152.410714,128.787888 152.410714,131.500001 Z" id="Path"></path>
                    <path d="M152.410714,150.500001 C152.410714,153.212113 150.212112,155.410714 147.499999,155.410714 C144.787887,155.410714 142.589286,153.212113 142.589286,150.500001 C142.589286,147.787888 144.787887,145.589286 147.499999,145.589286 C150.212112,145.589286 152.410714,147.787888 152.410714,150.500001 Z" id="Path"></path>
                    <path d="M152.410714,166.500001 C152.410714,169.212113 150.212112,171.410714 147.499999,171.410714 C144.787887,171.410714 142.589286,169.212113 142.589286,166.500001 C142.589286,163.787888 144.787887,161.589286 147.499999,161.589286 C150.212112,161.589286 152.410714,163.787888 152.410714,166.500001 Z" id="Path"></path>
                    <path d="M152.410714,185.500001 C152.410714,188.212113 150.212112,190.410714 147.499999,190.410714 C144.787887,190.410714 142.589286,188.212113 142.589286,185.500001 C142.589286,182.787888 144.787887,180.589286 147.499999,180.589286 C150.212112,180.589286 152.410714,182.787888 152.410714,185.500001 Z" id="Path"></path>
                    <path d="M152.410714,204.500001 C152.410714,207.212113 150.212112,209.410714 147.499999,209.410714 C144.787887,209.410714 142.589286,207.212113 142.589286,204.500001 C142.589286,201.787888 144.787887,199.589286 147.499999,199.589286 C150.212112,199.589286 152.410714,201.787888 152.410714,204.500001 Z" id="Path"></path>
                    <path d="M152.410714,220.500001 C152.410714,223.212113 150.212112,225.410714 147.499999,225.410714 C144.787887,225.410714 142.589286,223.212113 142.589286,220.500001 C142.589286,217.787888 144.787887,215.589286 147.499999,215.589286 C150.212112,215.589286 152.410714,217.787888 152.410714,220.500001 Z" id="Path"></path>
                    <path d="M171.410714,26.5000005 C171.410714,29.2121133 169.212112,31.4107141 166.499999,31.4107141 C163.787887,31.4107141 161.589286,29.2121133 161.589286,26.5000005 C161.589286,23.7878878 163.787887,21.589286 166.499999,21.589286 C169.212112,21.589286 171.410714,23.7878878 171.410714,26.5000005 Z" id="Path"></path>
                    <path d="M171.410714,42.5000005 C171.410714,45.2121133 169.212112,47.4107141 166.499999,47.4107141 C163.787887,47.4107141 161.589286,45.2121133 161.589286,42.5000005 C161.589286,39.7878878 163.787887,37.5892859 166.499999,37.5892859 C169.212112,37.5892859 171.410714,39.7878878 171.410714,42.5000005 Z" id="Path"></path>
                    <path d="M171.410714,61.5000005 C171.410714,64.2121133 169.212112,66.410714 166.499999,66.410714 C163.787887,66.410714 161.589286,64.2121133 161.589286,61.5000005 C161.589286,58.7878878 163.787887,56.5892859 166.499999,56.5892859 C169.212112,56.5892859 171.410714,58.7878878 171.410714,61.5000005 Z" id="Path"></path>
                    <path d="M171.410714,77.5000005 C171.410714,80.2121133 169.212112,82.410714 166.499999,82.410714 C163.787887,82.410714 161.589286,80.2121133 161.589286,77.5000005 C161.589286,74.7878879 163.787887,72.589286 166.499999,72.589286 C169.212112,72.589286 171.410714,74.7878879 171.410714,77.5000005 Z" id="Path"></path>
                    <path d="M171.410714,115.500001 C171.410714,118.212113 169.212112,120.410714 166.499999,120.410714 C163.787887,120.410714 161.589286,118.212113 161.589286,115.500001 C161.589286,112.787888 163.787887,110.589286 166.499999,110.589286 C169.212112,110.589286 171.410714,112.787888 171.410714,115.500001 Z" id="Path"></path>
                    <path d="M171.410714,131.500001 C171.410714,134.212113 169.212112,136.410714 166.499999,136.410714 C163.787887,136.410714 161.589286,134.212113 161.589286,131.500001 C161.589286,128.787888 163.787887,126.589286 166.499999,126.589286 C169.212112,126.589286 171.410714,128.787888 171.410714,131.500001 Z" id="Path"></path>
                    <path d="M171.410714,150.500001 C171.410714,153.212113 169.212112,155.410714 166.499999,155.410714 C163.787887,155.410714 161.589286,153.212113 161.589286,150.500001 C161.589286,147.787888 163.787887,145.589286 166.499999,145.589286 C169.212112,145.589286 171.410714,147.787888 171.410714,150.500001 Z" id="Path"></path>
                    <path d="M171.410714,166.500001 C171.410714,169.212113 169.212112,171.410714 166.499999,171.410714 C163.787887,171.410714 161.589286,169.212113 161.589286,166.500001 C161.589286,163.787888 163.787887,161.589286 166.499999,161.589286 C169.212112,161.589286 171.410714,163.787888 171.410714,166.500001 Z" id="Path"></path>
                    <path d="M171.410714,185.500001 C171.410714,188.212113 169.212112,190.410714 166.499999,190.410714 C163.787887,190.410714 161.589286,188.212113 161.589286,185.500001 C161.589286,182.787888 163.787887,180.589286 166.499999,180.589286 C169.212112,180.589286 171.410714,182.787888 171.410714,185.500001 Z" id="Path"></path>
                    <path d="M171.410714,204.500001 C171.410714,207.212113 169.212112,209.410714 166.499999,209.410714 C163.787887,209.410714 161.589286,207.212113 161.589286,204.500001 C161.589286,201.787888 163.787887,199.589286 166.499999,199.589286 C169.212112,199.589286 171.410714,201.787888 171.410714,204.500001 Z" id="Path"></path>
                    <path d="M171.410714,220.500001 C171.410714,223.212113 169.212112,225.410714 166.499999,225.410714 C163.787887,225.410714 161.589286,223.212113 161.589286,220.500001 C161.589286,217.787888 163.787887,215.589286 166.499999,215.589286 C169.212112,215.589286 171.410714,217.787888 171.410714,220.500001 Z" id="Path"></path>
                    <path d="M190.410714,131.500001 C190.410714,134.212113 188.212112,136.410714 185.499999,136.410714 C182.787887,136.410714 180.589286,134.212113 180.589286,131.500001 C180.589286,128.787888 182.787887,126.589286 185.499999,126.589286 C188.212112,126.589286 190.410714,128.787888 190.410714,131.500001 Z" id="Path"></path>
                    <path d="M190.410714,150.500001 C190.410714,153.212113 188.212112,155.410714 185.499999,155.410714 C182.787887,155.410714 180.589286,153.212113 180.589286,150.500001 C180.589286,147.787888 182.787887,145.589286 185.499999,145.589286 C188.212112,145.589286 190.410714,147.787888 190.410714,150.500001 Z" id="Path"></path>
                    <path d="M190.410714,166.500001 C190.410714,169.212113 188.212112,171.410714 185.499999,171.410714 C182.787887,171.410714 180.589286,169.212113 180.589286,166.500001 C180.589286,163.787888 182.787887,161.589286 185.499999,161.589286 C188.212112,161.589286 190.410714,163.787888 190.410714,166.500001 Z" id="Path"></path>
                    <path d="M190.410714,185.500001 C190.410714,188.212113 188.212112,190.410714 185.499999,190.410714 C182.787887,190.410714 180.589286,188.212113 180.589286,185.500001 C180.589286,182.787888 182.787887,180.589286 185.499999,180.589286 C188.212112,180.589286 190.410714,182.787888 190.410714,185.500001 Z" id="Path"></path>
                    <path d="M190.410714,204.500001 C190.410714,207.212113 188.212112,209.410714 185.499999,209.410714 C182.787887,209.410714 180.589286,207.212113 180.589286,204.500001 C180.589286,201.787888 182.787887,199.589286 185.499999,199.589286 C188.212112,199.589286 190.410714,201.787888 190.410714,204.500001 Z" id="Path"></path>
                    <path d="M190.410714,220.500001 C190.410714,223.212113 188.212112,225.410714 185.499999,225.410714 C182.787887,225.410714 180.589286,223.212113 180.589286,220.500001 C180.589286,217.787888 182.787887,215.589286 185.499999,215.589286 C188.212112,215.589286 190.410714,217.787888 190.410714,220.500001 Z" id="Path"></path>
                    <path d="M206.410714,166.500001 C206.410714,169.212113 204.212112,171.410714 201.499999,171.410714 C198.787887,171.410714 196.589286,169.212113 196.589286,166.500001 C196.589286,163.787888 198.787887,161.589286 201.499999,161.589286 C204.212112,161.589286 206.410714,163.787888 206.410714,166.500001 Z" id="Path"></path>
                    <path d="M206.410714,185.500001 C206.410714,188.212113 204.212112,190.410714 201.499999,190.410714 C198.787887,190.410714 196.589286,188.212113 196.589286,185.500001 C196.589286,182.787888 198.787887,180.589286 201.499999,180.589286 C204.212112,180.589286 206.410714,182.787888 206.410714,185.500001 Z" id="Path"></path>
                    <path d="M206.410714,204.500001 C206.410714,207.212113 204.212112,209.410714 201.499999,209.410714 C198.787887,209.410714 196.589286,207.212113 196.589286,204.500001 C196.589286,201.787888 198.787887,199.589286 201.499999,199.589286 C204.212112,199.589286 206.410714,201.787888 206.410714,204.500001 Z" id="Path"></path>
                    <path d="M206.410714,220.500001 C206.410714,223.212113 204.212112,225.410714 201.499999,225.410714 C198.787887,225.410714 196.589286,223.212113 196.589286,220.500001 C196.589286,217.787888 198.787887,215.589286 201.499999,215.589286 C204.212112,215.589286 206.410714,217.787888 206.410714,220.500001 Z" id="Path"></path>
                    <path d="M224.410714,166.500001 C224.410714,169.212113 222.212112,171.410714 219.499999,171.410714 C216.787887,171.410714 214.589286,169.212113 214.589286,166.500001 C214.589286,163.787888 216.787887,161.589286 219.499999,161.589286 C222.212112,161.589286 224.410714,163.787888 224.410714,166.500001 Z" id="Path"></path>
                    <path d="M224.410714,185.500001 C224.410714,188.212113 222.212112,190.410714 219.499999,190.410714 C216.787887,190.410714 214.589286,188.212113 214.589286,185.500001 C214.589286,182.787888 216.787887,180.589286 219.499999,180.589286 C222.212112,180.589286 224.410714,182.787888 224.410714,185.500001 Z" id="Path"></path>
                    <path d="M224.410714,204.500001 C224.410714,207.212113 222.212112,209.410714 219.499999,209.410714 C216.787887,209.410714 214.589286,207.212113 214.589286,204.500001 C214.589286,201.787888 216.787887,199.589286 219.499999,199.589286 C222.212112,199.589286 224.410714,201.787888 224.410714,204.500001 Z" id="Path"></path>
                    <path d="M224.410714,220.500001 C224.410714,223.212113 222.212112,225.410714 219.499999,225.410714 C216.787887,225.410714 214.589286,223.212113 214.589286,220.500001 C214.589286,217.787888 216.787887,215.589286 219.499999,215.589286 C222.212112,215.589286 224.410714,217.787888 224.410714,220.500001 Z" id="Path"></path>
                    <path d="M240.410714,166.500001 C240.410714,169.212113 238.212112,171.410714 235.499999,171.410714 C232.787887,171.410714 230.589286,169.212113 230.589286,166.500001 C230.589286,163.787888 232.787887,161.589286 235.499999,161.589286 C238.212112,161.589286 240.410714,163.787888 240.410714,166.500001 Z" id="Path"></path>
                    <path d="M240.410714,185.500001 C240.410714,188.212113 238.212112,190.410714 235.499999,190.410714 C232.787887,190.410714 230.589286,188.212113 230.589286,185.500001 C230.589286,182.787888 232.787887,180.589286 235.499999,180.589286 C238.212112,180.589286 240.410714,182.787888 240.410714,185.500001 Z" id="Path"></path>
                    <path d="M240.410714,204.500001 C240.410714,207.212113 238.212112,209.410714 235.499999,209.410714 C232.787887,209.410714 230.589286,207.212113 230.589286,204.500001 C230.589286,201.787888 232.787887,199.589286 235.499999,199.589286 C238.212112,199.589286 240.410714,201.787888 240.410714,204.500001 Z" id="Path"></path>
                    <path d="M240.410714,220.500001 C240.410714,223.212113 238.212112,225.410714 235.499999,225.410714 C232.787887,225.410714 230.589286,223.212113 230.589286,220.500001 C230.589286,217.787888 232.787887,215.589286 235.499999,215.589286 C238.212112,215.589286 240.410714,217.787888 240.410714,220.500001 Z" id="Path"></path>
                    <path d="M259.410714,185.500001 C259.410714,188.212113 257.212112,190.410714 254.499999,190.410714 C251.787887,190.410714 249.589286,188.212113 249.589286,185.500001 C249.589286,182.787888 251.787887,180.589286 254.499999,180.589286 C257.212112,180.589286 259.410714,182.787888 259.410714,185.500001 Z" id="Path"></path>
                    <path d="M259.410714,204.500001 C259.410714,207.212113 257.212112,209.410714 254.499999,209.410714 C251.787887,209.410714 249.589286,207.212113 249.589286,204.500001 C249.589286,201.787888 251.787887,199.589286 254.499999,199.589286 C257.212112,199.589286 259.410714,201.787888 259.410714,204.500001 Z" id="Path"></path>
                    <path d="M259.410714,220.500001 C259.410714,223.212113 257.212112,225.410714 254.499999,225.410714 C251.787887,225.410714 249.589286,223.212113 249.589286,220.500001 C249.589286,217.787888 251.787887,215.589286 254.499999,215.589286 C257.212112,215.589286 259.410714,217.787888 259.410714,220.500001 Z" id="Path"></path>
                    <path d="M278.410714,185.500001 C278.410714,188.212113 276.212112,190.410714 273.499999,190.410714 C270.787887,190.410714 268.589286,188.212113 268.589286,185.500001 C268.589286,182.787888 270.787887,180.589286 273.499999,180.589286 C276.212112,180.589286 278.410714,182.787888 278.410714,185.500001 Z" id="Path"></path>
                    <path d="M278.410714,204.500001 C278.410714,207.212113 276.212112,209.410714 273.499999,209.410714 C270.787887,209.410714 268.589286,207.212113 268.589286,204.500001 C268.589286,201.787888 270.787887,199.589286 273.499999,199.589286 C276.212112,199.589286 278.410714,201.787888 278.410714,204.500001 Z" id="Path"></path>
                    <path d="M278.410714,220.500001 C278.410714,223.212113 276.212112,225.410714 273.499999,225.410714 C270.787887,225.410714 268.589286,223.212113 268.589286,220.500001 C268.589286,217.787888 270.787887,215.589286 273.499999,215.589286 C276.212112,215.589286 278.410714,217.787888 278.410714,220.500001 Z" id="Path"></path>
                    <path d="M297.410714,166.500001 C297.410714,169.212113 295.212112,171.410714 292.499999,171.410714 C289.787887,171.410714 287.589286,169.212113 287.589286,166.500001 C287.589286,163.787888 289.787887,161.589286 292.499999,161.589286 C295.212112,161.589286 297.410714,163.787888 297.410714,166.500001 Z" id="Path"></path>
                    <path d="M297.410714,185.500001 C297.410714,188.212113 295.212112,190.410714 292.499999,190.410714 C289.787887,190.410714 287.589286,188.212113 287.589286,185.500001 C287.589286,182.787888 289.787887,180.589286 292.499999,180.589286 C295.212112,180.589286 297.410714,182.787888 297.410714,185.500001 Z" id="Path"></path>
                    <path d="M297.410714,204.500001 C297.410714,207.212113 295.212112,209.410714 292.499999,209.410714 C289.787887,209.410714 287.589286,207.212113 287.589286,204.500001 C287.589286,201.787888 289.787887,199.589286 292.499999,199.589286 C295.212112,199.589286 297.410714,201.787888 297.410714,204.500001 Z" id="Path"></path>
                    <path d="M297.410714,220.500001 C297.410714,223.212113 295.212112,225.410714 292.499999,225.410714 C289.787887,225.410714 287.589286,223.212113 287.589286,220.500001 C287.589286,217.787888 289.787887,215.589286 292.499999,215.589286 C295.212112,215.589286 297.410714,217.787888 297.410714,220.500001 Z" id="Path"></path>
                    <path d="M313.410714,185.500001 C313.410714,188.212113 311.212112,190.410714 308.499999,190.410714 C305.787887,190.410714 303.589286,188.212113 303.589286,185.500001 C303.589286,182.787888 305.787887,180.589286 308.499999,180.589286 C311.212112,180.589286 313.410714,182.787888 313.410714,185.500001 Z" id="Path"></path>
                    <path d="M313.410714,204.500001 C313.410714,207.212113 311.212112,209.410714 308.499999,209.410714 C305.787887,209.410714 303.589286,207.212113 303.589286,204.500001 C303.589286,201.787888 305.787887,199.589286 308.499999,199.589286 C311.212112,199.589286 313.410714,201.787888 313.410714,204.500001 Z" id="Path"></path>
                    <path d="M332.410714,185.500001 C332.410714,188.212113 330.212112,190.410714 327.499999,190.410714 C324.787887,190.410714 322.589286,188.212113 322.589286,185.500001 C322.589286,182.787888 324.787887,180.589286 327.499999,180.589286 C330.212112,180.589286 332.410714,182.787888 332.410714,185.500001 Z" id="Path"></path>
                    <path d="M332.410714,204.500001 C332.410714,207.212113 330.212112,209.410714 327.499999,209.410714 C324.787887,209.410714 322.589286,207.212113 322.589286,204.500001 C322.589286,201.787888 324.787887,199.589286 327.499999,199.589286 C330.212112,199.589286 332.410714,201.787888 332.410714,204.500001 Z" id="Path"></path>
                    <path d="M332.410714,220.500001 C332.410714,223.212113 330.212112,225.410714 327.499999,225.410714 C324.787887,225.410714 322.589286,223.212113 322.589286,220.500001 C322.589286,217.787888 324.787887,215.589286 327.499999,215.589286 C330.212112,215.589286 332.410714,217.787888 332.410714,220.500001 Z" id="Path"></path>
                    <path d="M348.410714,166.500001 C348.410714,169.212113 346.212112,171.410714 343.499999,171.410714 C340.787887,171.410714 338.589286,169.212113 338.589286,166.500001 C338.589286,163.787888 340.787887,161.589286 343.499999,161.589286 C346.212112,161.589286 348.410714,163.787888 348.410714,166.500001 Z" id="Path"></path>
                    <path d="M348.410714,185.500001 C348.410714,188.212113 346.212112,190.410714 343.499999,190.410714 C340.787887,190.410714 338.589286,188.212113 338.589286,185.500001 C338.589286,182.787888 340.787887,180.589286 343.499999,180.589286 C346.212112,180.589286 348.410714,182.787888 348.410714,185.500001 Z" id="Path"></path>
                    <path d="M348.410714,204.500001 C348.410714,207.212113 346.212112,209.410714 343.499999,209.410714 C340.787887,209.410714 338.589286,207.212113 338.589286,204.500001 C338.589286,201.787888 340.787887,199.589286 343.499999,199.589286 C346.212112,199.589286 348.410714,201.787888 348.410714,204.500001 Z" id="Path"></path>
                    <path d="M348.410714,220.500001 C348.410714,223.212113 346.212112,225.410714 343.499999,225.410714 C340.787887,225.410714 338.589286,223.212113 338.589286,220.500001 C338.589286,217.787888 340.787887,215.589286 343.499999,215.589286 C346.212112,215.589286 348.410714,217.787888 348.410714,220.500001 Z" id="Path"></path>
                    <path d="M367.410714,150.500001 C367.410714,153.212113 365.212112,155.410714 362.499999,155.410714 C359.787887,155.410714 357.589286,153.212113 357.589286,150.500001 C357.589286,147.787888 359.787887,145.589286 362.499999,145.589286 C365.212112,145.589286 367.410714,147.787888 367.410714,150.500001 Z" id="Path"></path>
                    <path d="M367.410714,166.500001 C367.410714,169.212113 365.212112,171.410714 362.499999,171.410714 C359.787887,171.410714 357.589286,169.212113 357.589286,166.500001 C357.589286,163.787888 359.787887,161.589286 362.499999,161.589286 C365.212112,161.589286 367.410714,163.787888 367.410714,166.500001 Z" id="Path"></path>
                    <path d="M367.410714,185.500001 C367.410714,188.212113 365.212112,190.410714 362.499999,190.410714 C359.787887,190.410714 357.589286,188.212113 357.589286,185.500001 C357.589286,182.787888 359.787887,180.589286 362.499999,180.589286 C365.212112,180.589286 367.410714,182.787888 367.410714,185.500001 Z" id="Path"></path>
                    <path d="M367.410714,204.500001 C367.410714,207.212113 365.212112,209.410714 362.499999,209.410714 C359.787887,209.410714 357.589286,207.212113 357.589286,204.500001 C357.589286,201.787888 359.787887,199.589286 362.499999,199.589286 C365.212112,199.589286 367.410714,201.787888 367.410714,204.500001 Z" id="Path"></path>
                    <path d="M367.410714,220.500001 C367.410714,223.212113 365.212112,225.410714 362.499999,225.410714 C359.787887,225.410714 357.589286,223.212113 357.589286,220.500001 C357.589286,217.787888 359.787887,215.589286 362.499999,215.589286 C365.212112,215.589286 367.410714,217.787888 367.410714,220.500001 Z" id="Path"></path>
                    <path d="M385.410714,150.500001 C385.410714,153.212113 383.212112,155.410714 380.499999,155.410714 C377.787887,155.410714 375.589286,153.212113 375.589286,150.500001 C375.589286,147.787888 377.787887,145.589286 380.499999,145.589286 C383.212112,145.589286 385.410714,147.787888 385.410714,150.500001 Z" id="Path"></path>
                    <path d="M385.410714,166.500001 C385.410714,169.212113 383.212112,171.410714 380.499999,171.410714 C377.787887,171.410714 375.589286,169.212113 375.589286,166.500001 C375.589286,163.787888 377.787887,161.589286 380.499999,161.589286 C383.212112,161.589286 385.410714,163.787888 385.410714,166.500001 Z" id="Path"></path>
                    <path d="M385.410714,185.500001 C385.410714,188.212113 383.212112,190.410714 380.499999,190.410714 C377.787887,190.410714 375.589286,188.212113 375.589286,185.500001 C375.589286,182.787888 377.787887,180.589286 380.499999,180.589286 C383.212112,180.589286 385.410714,182.787888 385.410714,185.500001 Z" id="Path"></path>
                    <path d="M385.410714,204.500001 C385.410714,207.212113 383.212112,209.410714 380.499999,209.410714 C377.787887,209.410714 375.589286,207.212113 375.589286,204.500001 C375.589286,201.787888 377.787887,199.589286 380.499999,199.589286 C383.212112,199.589286 385.410714,201.787888 385.410714,204.500001 Z" id="Path"></path>
                    <path d="M401.410714,131.500001 C401.410714,134.212113 399.212112,136.410714 396.499999,136.410714 C393.787887,136.410714 391.589286,134.212113 391.589286,131.500001 C391.589286,128.787888 393.787887,126.589286 396.499999,126.589286 C399.212112,126.589286 401.410714,128.787888 401.410714,131.500001 Z" id="Path"></path>
                    <path d="M401.410714,150.500001 C401.410714,153.212113 399.212112,155.410714 396.499999,155.410714 C393.787887,155.410714 391.589286,153.212113 391.589286,150.500001 C391.589286,147.787888 393.787887,145.589286 396.499999,145.589286 C399.212112,145.589286 401.410714,147.787888 401.410714,150.500001 Z" id="Path"></path>
                    <path d="M401.410714,166.500001 C401.410714,169.212113 399.212112,171.410714 396.499999,171.410714 C393.787887,171.410714 391.589286,169.212113 391.589286,166.500001 C391.589286,163.787888 393.787887,161.589286 396.499999,161.589286 C399.212112,161.589286 401.410714,163.787888 401.410714,166.500001 Z" id="Path"></path>
                    <path d="M420.410714,150.500001 C420.410714,153.212113 418.212112,155.410714 415.499999,155.410714 C412.787887,155.410714 410.589286,153.212113 410.589286,150.500001 C410.589286,147.787888 412.787887,145.589286 415.499999,145.589286 C418.212112,145.589286 420.410714,147.787888 420.410714,150.500001 Z" id="Path"></path>
                </g>
            </g>
        </g>
    </g>
</svg>