<?xml version="1.0" encoding="UTF-8"?>
<svg width="421px" height="459px" viewBox="0 0 421 459" version="1.1" xmlns="http://www.w3.org/2000/svg" xmlns:xlink="http://www.w3.org/1999/xlink">
    <!-- Generator: Sketch 52.2 (67145) - http://www.bohemiancoding.com/sketch -->
    <title>India Icon</title>
    <desc>Created with Sketch.</desc>
    <g id="Website-Design" stroke="none" stroke-width="1" fill="none" fill-rule="evenodd">
        <g id="Home" transform="translate(-954.000000, -3130.000000)" fill="#FFFFFF">
            <g id="Footer" transform="translate(-145.000000, 3107.000000)">
                <g id="India-Icon" transform="translate(1098.996750, 23.000000)">
                    <path d="M10.4107141,220.500001 C10.4107141,223.212113 8.21211215,225.410714 5.49999945,225.410714 C2.78788675,225.410714 0.58928595,223.212113 0.58928595,220.500001 C0.58928595,217.787888 2.78788675,215.589286 5.49999945,215.589286 C8.21211215,215.589286 10.4107141,217.787888 10.4107141,220.500001 Z" id="Path"></path>
                    <path d="M10.4107141,238.500001 C10.4107141,241.212113 8.21211215,243.410714 5.49999945,243.410714 C2.78788675,243.410714 0.58928595,241.212113 0.58928595,238.500001 C0.58928595,235.787888 2.78788675,233.589286 5.49999945,233.589286 C8.21211215,233.589286 10.4107141,235.787888 10.4107141,238.500001 Z" id="Path"></path>
                    <path d="M29.4107141,166.500001 C29.4107141,169.212113 27.2121122,171.410714 24.4999995,171.410714 C21.7878867,171.410714 19.589286,169.212113 19.589286,166.500001 C19.589286,163.787888 21.7878867,161.589286 24.4999995,161.589286 C27.2121122,161.589286 29.4107141,163.787888 29.4107141,166.500001 Z" id="Path"></path>
                    <path d="M29.4107141,185.500001 C29.4107141,188.212113 27.2121122,190.410714 24.4999995,190.410714 C21.7878867,190.410714 19.589286,188.212113 19.589286,185.500001 C19.589286,182.787888 21.7878867,180.589286 24.4999995,180.589286 C27.2121122,180.589286 29.4107141,182.787888 29.4107141,185.500001 Z" id="Path"></path>
                    <path d="M29.4107141,220.500001 C29.4107141,223.212113 27.2121122,225.410714 24.4999995,225.410714 C21.7878867,225.410714 19.589286,223.212113 19.589286,220.500001 C19.589286,217.787888 21.7878867,215.589286 24.4999995,215.589286 C27.2121122,215.589286 29.4107141,217.787888 29.4107141,220.500001 Z" id="Path"></path>
                    <path d="M29.4107141,238.500001 C29.4107141,241.212113 27.2121122,243.410714 24.4999995,243.410714 C21.7878867,243.410714 19.589286,241.212113 19.589286,238.500001 C19.589286,235.787888 21.7878867,233.589286 24.4999995,233.589286 C27.2121122,233.589286 29.4107141,235.787888 29.4107141,238.500001 Z" id="Path"></path>
                    <path d="M29.4107141,257.500001 C29.4107141,260.212113 27.2121122,262.410714 24.4999995,262.410714 C21.7878867,262.410714 19.589286,260.212113 19.589286,257.500001 C19.589286,254.787888 21.7878867,252.589286 24.4999995,252.589286 C27.2121122,252.589286 29.4107141,254.787888 29.4107141,257.500001 Z" id="Path"></path>
                    <path d="M47.4107141,166.500001 C47.4107141,169.212113 45.2121122,171.410714 42.4999995,171.410714 C39.7878867,171.410714 37.5892859,169.212113 37.5892859,166.500001 C37.5892859,163.787888 39.7878867,161.589286 42.4999995,161.589286 C45.2121122,161.589286 47.4107141,163.787888 47.4107141,166.500001 Z" id="Path"></path>
                    <path d="M47.4107141,185.500001 C47.4107141,188.212113 45.2121122,190.410714 42.4999995,190.410714 C39.7878867,190.410714 37.5892859,188.212113 37.5892859,185.500001 C37.5892859,182.787888 39.7878867,180.589286 42.4999995,180.589286 C45.2121122,180.589286 47.4107141,182.787888 47.4107141,185.500001 Z" id="Path"></path>
                    <path d="M47.4107141,204.500001 C47.4107141,207.212113 45.2121122,209.410714 42.4999995,209.410714 C39.7878867,209.410714 37.5892859,207.212113 37.5892859,204.500001 C37.5892859,201.787888 39.7878867,199.589286 42.4999995,199.589286 C45.2121122,199.589286 47.4107141,201.787888 47.4107141,204.500001 Z" id="Path"></path>
                    <path d="M47.4107141,220.500001 C47.4107141,223.212113 45.2121122,225.410714 42.4999995,225.410714 C39.7878867,225.410714 37.5892859,223.212113 37.5892859,220.500001 C37.5892859,217.787888 39.7878867,215.589286 42.4999995,215.589286 C45.2121122,215.589286 47.4107141,217.787888 47.4107141,220.500001 Z" id="Path"></path>
                    <path d="M47.4107141,238.500001 C47.4107141,241.212113 45.2121122,243.410714 42.4999995,243.410714 C39.7878867,243.410714 37.5892859,241.212113 37.5892859,238.500001 C37.5892859,235.787888 39.7878867,233.589286 42.4999995,233.589286 C45.2121122,233.589286 47.4107141,235.787888 47.4107141,238.500001 Z" id="Path"></path>
                    <path d="M47.4107141,257.500001 C47.4107141,260.212113 45.2121122,262.410714 42.4999995,262.410714 C39.7878867,262.410714 37.5892859,260.212113 37.5892859,257.500001 C37.5892859,254.787888 39.7878867,252.589286 42.4999995,252.589286 C45.2121122,252.589286 47.4107141,254.787888 47.4107141,257.500001 Z" id="Path"></path>
                    <path d="M47.4107141,276.500001 C47.4107141,279.212113 45.2121122,281.410714 42.4999995,281.410714 C39.7878867,281.410714 37.5892859,279.212113 37.5892859,276.500001 C37.5892859,273.787888 39.7878867,271.589286 42.4999995,271.589286 C45.2121122,271.589286 47.4107141,273.787888 47.4107141,276.500001 Z" id="Path"></path>
                    <path d="M63.4107141,150.500001 C63.4107141,153.212113 61.2121122,155.410714 58.4999995,155.410714 C55.7878867,155.410714 53.5892859,153.212113 53.5892859,150.500001 C53.5892859,147.787888 55.7878867,145.589286 58.4999995,145.589286 C61.2121122,145.589286 63.4107141,147.787888 63.4107141,150.500001 Z" id="Path"></path>
                    <path d="M63.4107141,166.500001 C63.4107141,169.212113 61.2121122,171.410714 58.4999995,171.410714 C55.7878867,171.410714 53.5892859,169.212113 53.5892859,166.500001 C53.5892859,163.787888 55.7878867,161.589286 58.4999995,161.589286 C61.2121122,161.589286 63.4107141,163.787888 63.4107141,166.500001 Z" id="Path"></path>
                    <path d="M63.4107141,185.500001 C63.4107141,188.212113 61.2121122,190.410714 58.4999995,190.410714 C55.7878867,190.410714 53.5892859,188.212113 53.5892859,185.500001 C53.5892859,182.787888 55.7878867,180.589286 58.4999995,180.589286 C61.2121122,180.589286 63.4107141,182.787888 63.4107141,185.500001 Z" id="Path"></path>
                    <path d="M63.4107141,204.500001 C63.4107141,207.212113 61.2121122,209.410714 58.4999995,209.410714 C55.7878867,209.410714 53.5892859,207.212113 53.5892859,204.500001 C53.5892859,201.787888 55.7878867,199.589286 58.4999995,199.589286 C61.2121122,199.589286 63.4107141,201.787888 63.4107141,204.500001 Z" id="Path"></path>
                    <path d="M63.4107141,220.500001 C63.4107141,223.212113 61.2121122,225.410714 58.4999995,225.410714 C55.7878867,225.410714 53.5892859,223.212113 53.5892859,220.500001 C53.5892859,217.787888 55.7878867,215.589286 58.4999995,215.589286 C61.2121122,215.589286 63.4107141,217.787888 63.4107141,220.500001 Z" id="Path"></path>
                    <path d="M63.4107141,238.500001 C63.4107141,241.212113 61.2121122,243.410714 58.4999995,243.410714 C55.7878867,243.410714 53.5892859,241.212113 53.5892859,238.500001 C53.5892859,235.787888 55.7878867,233.589286 58.4999995,233.589286 C61.2121122,233.589286 63.4107141,235.787888 63.4107141,238.500001 Z" id="Path"></path>
                    <path d="M63.4107141,257.500001 C63.4107141,260.212113 61.2121122,262.410714 58.4999995,262.410714 C55.7878867,262.410714 53.5892859,260.212113 53.5892859,257.500001 C53.5892859,254.787888 55.7878867,252.589286 58.4999995,252.589286 C61.2121122,252.589286 63.4107141,254.787888 63.4107141,257.500001 Z" id="Path"></path>
                    <path d="M82.410714,5.50000055 C82.410714,8.21211325 80.2121121,10.4107141 77.4999995,10.4107141 C74.7878867,10.4107141 72.589286,8.21211325 72.589286,5.50000055 C72.589286,2.78788785 74.7878867,0.58928595 77.4999995,0.58928595 C80.2121121,0.58928595 82.410714,2.78788785 82.410714,5.50000055 Z" id="Path"></path>
                    <path d="M82.410714,26.5000005 C82.410714,29.2121133 80.2121121,31.4107141 77.4999995,31.4107141 C74.7878867,31.4107141 72.589286,29.2121133 72.589286,26.5000005 C72.589286,23.7878878 74.7878867,21.589286 77.4999995,21.589286 C80.2121121,21.589286 82.410714,23.7878878 82.410714,26.5000005 Z" id="Path"></path>
                    <path d="M82.410714,61.5000005 C82.410714,64.2121133 80.2121121,66.410714 77.4999995,66.410714 C74.7878867,66.410714 72.589286,64.2121133 72.589286,61.5000005 C72.589286,58.7878878 74.7878867,56.5892859 77.4999995,56.5892859 C80.2121121,56.5892859 82.410714,58.7878878 82.410714,61.5000005 Z" id="Path"></path>
                    <path d="M82.410714,131.500001 C82.410714,134.212113 80.2121121,136.410714 77.4999995,136.410714 C74.7878867,136.410714 72.589286,134.212113 72.589286,131.500001 C72.589286,128.787888 74.7878867,126.589286 77.4999995,126.589286 C80.2121121,126.589286 82.410714,128.787888 82.410714,131.500001 Z" id="Path"></path>
                    <path d="M82.410714,150.500001 C82.410714,153.212113 80.2121121,155.410714 77.4999995,155.410714 C74.7878867,155.410714 72.589286,153.212113 72.589286,150.500001 C72.589286,147.787888 74.7878867,145.589286 77.4999995,145.589286 C80.2121121,145.589286 82.410714,147.787888 82.410714,150.500001 Z" id="Path"></path>
                    <path d="M82.410714,166.500001 C82.410714,169.212113 80.2121121,171.410714 77.4999995,171.410714 C74.7878867,171.410714 72.589286,169.212113 72.589286,166.500001 C72.589286,163.787888 74.7878867,161.589286 77.4999995,161.589286 C80.2121121,161.589286 82.410714,163.787888 82.410714,166.500001 Z" id="Path"></path>
                    <path d="M82.410714,185.500001 C82.410714,188.212113 80.2121121,190.410714 77.4999995,190.410714 C74.7878867,190.410714 72.589286,188.212113 72.589286,185.500001 C72.589286,182.787888 74.7878867,180.589286 77.4999995,180.589286 C80.2121121,180.589286 82.410714,182.787888 82.410714,185.500001 Z" id="Path"></path>
                    <path d="M82.410714,204.500001 C82.410714,207.212113 80.2121121,209.410714 77.4999995,209.410714 C74.7878867,209.410714 72.589286,207.212113 72.589286,204.500001 C72.589286,201.787888 74.7878867,199.589286 77.4999995,199.589286 C80.2121121,199.589286 82.410714,201.787888 82.410714,204.500001 Z" id="Path"></path>
                    <path d="M82.410714,220.500001 C82.410714,223.212113 80.2121121,225.410714 77.4999995,225.410714 C74.7878867,225.410714 72.589286,223.212113 72.589286,220.500001 C72.589286,217.787888 74.7878867,215.589286 77.4999995,215.589286 C80.2121121,215.589286 82.410714,217.787888 82.410714,220.500001 Z" id="Path"></path>
                    <path d="M82.410714,238.500001 C82.410714,241.212113 80.2121121,243.410714 77.4999995,243.410714 C74.7878867,243.410714 72.589286,241.212113 72.589286,238.500001 C72.589286,235.787888 74.7878867,233.589286 77.4999995,233.589286 C80.2121121,233.589286 82.410714,235.787888 82.410714,238.500001 Z" id="Path"></path>
                    <path d="M82.410714,257.500001 C82.410714,260.212113 80.2121121,262.410714 77.4999995,262.410714 C74.7878867,262.410714 72.589286,260.212113 72.589286,257.500001 C72.589286,254.787888 74.7878867,252.589286 77.4999995,252.589286 C80.2121121,252.589286 82.410714,254.787888 82.410714,257.500001 Z" id="Path"></path>
                    <path d="M82.410714,276.500001 C82.410714,279.212113 80.2121121,281.410714 77.4999995,281.410714 C74.7878867,281.410714 72.589286,279.212113 72.589286,276.500001 C72.589286,273.787888 74.7878867,271.589286 77.4999995,271.589286 C80.2121121,271.589286 82.410714,273.787888 82.410714,276.500001 Z" id="Path"></path>
                    <path d="M82.410714,292.500001 C82.410714,295.212113 80.2121121,297.410714 77.4999995,297.410714 C74.7878867,297.410714 72.589286,295.212113 72.589286,292.500001 C72.589286,289.787888 74.7878867,287.589286 77.4999995,287.589286 C80.2121121,287.589286 82.410714,289.787888 82.410714,292.500001 Z" id="Path"></path>
                    <path d="M82.410714,311.500001 C82.410714,314.212113 80.2121121,316.410714 77.4999995,316.410714 C74.7878867,316.410714 72.589286,314.212113 72.589286,311.500001 C72.589286,308.787888 74.7878867,306.589286 77.4999995,306.589286 C80.2121121,306.589286 82.410714,308.787888 82.410714,311.500001 Z" id="Path"></path>
                    <path d="M82.410714,327.500001 C82.410714,330.212113 80.2121121,332.410714 77.4999995,332.410714 C74.7878867,332.410714 72.589286,330.212113 72.589286,327.500001 C72.589286,324.787888 74.7878867,322.589286 77.4999995,322.589286 C80.2121121,322.589286 82.410714,324.787888 82.410714,327.500001 Z" id="Path"></path>
                    <path d="M82.410714,346.500001 C82.410714,349.212113 80.2121121,351.410714 77.4999995,351.410714 C74.7878867,351.410714 72.589286,349.212113 72.589286,346.500001 C72.589286,343.787888 74.7878867,341.589286 77.4999995,341.589286 C80.2121121,341.589286 82.410714,343.787888 82.410714,346.500001 Z" id="Path"></path>
                    <path d="M101.410714,5.50000055 C101.410714,8.21211325 99.2121121,10.4107141 96.4999995,10.4107141 C93.7878867,10.4107141 91.589286,8.21211325 91.589286,5.50000055 C91.589286,2.78788785 93.7878867,0.58928595 96.4999995,0.58928595 C99.2121121,0.58928595 101.410714,2.78788785 101.410714,5.50000055 Z" id="Path"></path>
                    <path d="M101.410714,26.5000005 C101.410714,29.2121133 99.2121121,31.4107141 96.4999995,31.4107141 C93.7878867,31.4107141 91.589286,29.2121133 91.589286,26.5000005 C91.589286,23.7878878 93.7878867,21.589286 96.4999995,21.589286 C99.2121121,21.589286 101.410714,23.7878878 101.410714,26.5000005 Z" id="Path"></path>
                    <path d="M101.410714,42.5000005 C101.410714,45.2121133 99.2121121,47.4107141 96.4999995,47.4107141 C93.7878867,47.4107141 91.589286,45.2121133 91.589286,42.5000005 C91.589286,39.7878878 93.7878867,37.5892859 96.4999995,37.5892859 C99.2121121,37.5892859 101.410714,39.7878878 101.410714,42.5000005 Z" id="Path"></path>
                    <path d="M101.410714,61.5000005 C101.410714,64.2121133 99.2121121,66.410714 96.4999995,66.410714 C93.7878867,66.410714 91.589286,64.2121133 91.589286,61.5000005 C91.589286,58.7878878 93.7878867,56.5892859 96.4999995,56.5892859 C99.2121121,56.5892859 101.410714,58.7878878 101.410714,61.5000005 Z" id="Path"></path>
                    <path d="M101.410714,77.5000005 C101.410714,80.2121133 99.2121121,82.410714 96.4999995,82.410714 C93.7878867,82.410714 91.589286,80.2121133 91.589286,77.5000005 C91.589286,74.7878879 93.7878867,72.589286 96.4999995,72.589286 C99.2121121,72.589286 101.410714,74.7878879 101.410714,77.5000005 Z" id="Path"></path>
                    <path d="M101.410714,96.5000005 C101.410714,99.2121133 99.2121121,101.410714 96.4999995,101.410714 C93.7878867,101.410714 91.589286,99.2121133 91.589286,96.5000005 C91.589286,93.7878879 93.7878867,91.589286 96.4999995,91.589286 C99.2121121,91.589286 101.410714,93.7878879 101.410714,96.5000005 Z" id="Path"></path>
                    <path d="M101.410714,115.500001 C101.410714,118.212113 99.2121121,120.410714 96.4999995,120.410714 C93.7878867,120.410714 91.589286,118.212113 91.589286,115.500001 C91.589286,112.787888 93.7878867,110.589286 96.4999995,110.589286 C99.2121121,110.589286 101.410714,112.787888 101.410714,115.500001 Z" id="Path"></path>
                    <path d="M101.410714,131.500001 C101.410714,134.212113 99.2121121,136.410714 96.4999995,136.410714 C93.7878867,136.410714 91.589286,134.212113 91.589286,131.500001 C91.589286,128.787888 93.7878867,126.589286 96.4999995,126.589286 C99.2121121,126.589286 101.410714,128.787888 101.410714,131.500001 Z" id="Path"></path>
                    <path d="M101.410714,150.500001 C101.410714,153.212113 99.2121121,155.410714 96.4999995,155.410714 C93.7878867,155.410714 91.589286,153.212113 91.589286,150.500001 C91.589286,147.787888 93.7878867,145.589286 96.4999995,145.589286 C99.2121121,145.589286 101.410714,147.787888 101.410714,150.500001 Z" id="Path"></path>
                    <path d="M101.410714,166.500001 C101.410714,169.212113 99.2121121,171.410714 96.4999995,171.410714 C93.7878867,171.410714 91.589286,169.212113 91.589286,166.500001 C91.589286,163.787888 93.7878867,161.589286 96.4999995,161.589286 C99.2121121,161.589286 101.410714,163.787888 101.410714,166.500001 Z" id="Path"></path>
                    <path d="M101.410714,185.500001 C101.410714,188.212113 99.2121121,190.410714 96.4999995,190.410714 C93.7878867,190.410714 91.589286,188.212113 91.589286,185.500001 C91.589286,182.787888 93.7878867,180.589286 96.4999995,180.589286 C99.2121121,180.589286 101.410714,182.787888 101.410714,185.500001 Z" id="Path"></path>
                    <path d="M101.410714,204.500001 C101.410714,207.212113 99.2121121,209.410714 96.4999995,209.410714 C93.7878867,209.410714 91.589286,207.212113 91.589286,204.500001 C91.589286,201.787888 93.7878867,199.589286 96.4999995,199.589286 C99.2121121,199.589286 101.410714,201.787888 101.410714,204.500001 Z" id="Path"></path>
                    <path d="M101.410714,220.500001 C101.410714,223.212113 99.2121121,225.410714 96.4999995,225.410714 C93.7878867,225.410714 91.589286,223.212113 91.589286,220.500001 C91.589286,217.787888 93.7878867,215.589286 96.4999995,215.589286 C99.2121121,215.589286 101.410714,217.787888 101.410714,220.500001 Z" id="Path"></path>
                    <path d="M101.410714,238.500001 C101.410714,241.212113 99.2121121,243.410714 96.4999995,243.410714 C93.7878867,243.410714 91.589286,241.212113 91.589286,238.500001 C91.589286,235.787888 93.7878867,233.589286 96.4999995,233.589286 C99.2121121,233.589286 101.410714,235.787888 101.410714,238.500001 Z" id="Path"></path>
                    <path d="M101.410714,257.500001 C101.410714,260.212113 99.2121121,262.410714 96.4999995,262.410714 C93.7878867,262.410714 91.589286,260.212113 91.589286,257.500001 C91.589286,254.787888 93.7878867,252.589286 96.4999995,252.589286 C99.2121121,252.589286 101.410714,254.787888 101.410714,257.500001 Z" id="Path"></path>
                    <path d="M101.410714,276.500001 C101.410714,279.212113 99.2121121,281.410714 96.4999995,281.410714 C93.7878867,281.410714 91.589286,279.212113 91.589286,276.500001 C91.589286,273.787888 93.7878867,271.589286 96.4999995,271.589286 C99.2121121,271.589286 101.410714,273.787888 101.410714,276.500001 Z" id="Path"></path>
                    <path d="M101.410714,292.500001 C101.410714,295.212113 99.2121121,297.410714 96.4999995,297.410714 C93.7878867,297.410714 91.589286,295.212113 91.589286,292.500001 C91.589286,289.787888 93.7878867,287.589286 96.4999995,287.589286 C99.2121121,287.589286 101.410714,289.787888 101.410714,292.500001 Z" id="Path"></path>
                    <path d="M101.410714,311.500001 C101.410714,314.212113 99.2121121,316.410714 96.4999995,316.410714 C93.7878867,316.410714 91.589286,314.212113 91.589286,311.500001 C91.589286,308.787888 93.7878867,306.589286 96.4999995,306.589286 C99.2121121,306.589286 101.410714,308.787888 101.410714,311.500001 Z" id="Path"></path>
                    <path d="M101.410714,327.500001 C101.410714,330.212113 99.2121121,332.410714 96.4999995,332.410714 C93.7878867,332.410714 91.589286,330.212113 91.589286,327.500001 C91.589286,324.787888 93.7878867,322.589286 96.4999995,322.589286 C99.2121121,322.589286 101.410714,324.787888 101.410714,327.500001 Z" id="Path"></path>
                    <path d="M101.410714,346.500001 C101.410714,349.212113 99.2121121,351.410714 96.4999995,351.410714 C93.7878867,351.410714 91.589286,349.212113 91.589286,346.500001 C91.589286,343.787888 93.7878867,341.589286 96.4999995,341.589286 C99.2121121,341.589286 101.410714,343.787888 101.410714,346.500001 Z" id="Path"></path>
                    <path d="M101.410714,365.500001 C101.410714,368.212113 99.2121121,370.410714 96.4999995,370.410714 C93.7878867,370.410714 91.589286,368.212113 91.589286,365.500001 C91.589286,362.787888 93.7878867,360.589286 96.4999995,360.589286 C99.2121121,360.589286 101.410714,362.787888 101.410714,365.500001 Z" id="Path"></path>
                    <path d="M101.410714,381.500001 C101.410714,384.212113 99.2121121,386.410714 96.4999995,386.410714 C93.7878867,386.410714 91.589286,384.212113 91.589286,381.500001 C91.589286,378.787888 93.7878867,376.589286 96.4999995,376.589286 C99.2121121,376.589286 101.410714,378.787888 101.410714,381.500001 Z" id="Path"></path>
                    <path d="M117.410714,26.5000005 C117.410714,29.2121133 115.212112,31.4107141 112.499999,31.4107141 C109.787887,31.4107141 107.589286,29.2121133 107.589286,26.5000005 C107.589286,23.7878878 109.787887,21.589286 112.499999,21.589286 C115.212112,21.589286 117.410714,23.7878878 117.410714,26.5000005 Z" id="Path"></path>
                    <path d="M117.410714,42.5000005 C117.410714,45.2121133 115.212112,47.4107141 112.499999,47.4107141 C109.787887,47.4107141 107.589286,45.2121133 107.589286,42.5000005 C107.589286,39.7878878 109.787887,37.5892859 112.499999,37.5892859 C115.212112,37.5892859 117.410714,39.7878878 117.410714,42.5000005 Z" id="Path"></path>
                    <path d="M117.410714,61.5000005 C117.410714,64.2121133 115.212112,66.410714 112.499999,66.410714 C109.787887,66.410714 107.589286,64.2121133 107.589286,61.5000005 C107.589286,58.7878878 109.787887,56.5892859 112.499999,56.5892859 C115.212112,56.5892859 117.410714,58.7878878 117.410714,61.5000005 Z" id="Path"></path>
                    <path d="M117.410714,77.5000005 C117.410714,80.2121133 115.212112,82.410714 112.499999,82.410714 C109.787887,82.410714 107.589286,80.2121133 107.589286,77.5000005 C107.589286,74.7878879 109.787887,72.589286 112.499999,72.589286 C115.212112,72.589286 117.410714,74.7878879 117.410714,77.5000005 Z" id="Path"></path>
                    <path d="M117.410714,96.5000005 C117.410714,99.2121133 115.212112,101.410714 112.499999,101.410714 C109.787887,101.410714 107.589286,99.2121133 107.589286,96.5000005 C107.589286,93.7878879 109.787887,91.589286 112.499999,91.589286 C115.212112,91.589286 117.410714,93.7878879 117.410714,96.5000005 Z" id="Path"></path>
                    <path d="M117.410714,115.500001 C117.410714,118.212113 115.212112,120.410714 112.499999,120.410714 C109.787887,120.410714 107.589286,118.212113 107.589286,115.500001 C107.589286,112.787888 109.787887,110.589286 112.499999,110.589286 C115.212112,110.589286 117.410714,112.787888 117.410714,115.500001 Z" id="Path"></path>
                    <path d="M117.410714,131.500001 C117.410714,134.212113 115.212112,136.410714 112.499999,136.410714 C109.787887,136.410714 107.589286,134.212113 107.589286,131.500001 C107.589286,128.787888 109.787887,126.589286 112.499999,126.589286 C115.212112,126.589286 117.410714,128.787888 117.410714,131.500001 Z" id="Path"></path>
                    <path d="M117.410714,150.500001 C117.410714,153.212113 115.212112,155.410714 112.499999,155.410714 C109.787887,155.410714 107.589286,153.212113 107.589286,150.500001 C107.589286,147.787888 109.787887,145.589286 112.499999,145.589286 C115.212112,145.589286 117.410714,147.787888 117.410714,150.500001 Z" id="Path"></path>
                    <path d="M117.410714,166.500001 C117.410714,169.212113 115.212112,171.410714 112.499999,171.410714 C109.787887,171.410714 107.589286,169.212113 107.589286,166.500001 C107.589286,163.787888 109.787887,161.589286 112.499999,161.589286 C115.212112,161.589286 117.410714,163.787888 117.410714,166.500001 Z" id="Path"></path>
                    <path d="M117.410714,185.500001 C117.410714,188.212113 115.212112,190.410714 112.499999,190.410714 C109.787887,190.410714 107.589286,188.212113 107.589286,185.500001 C107.589286,182.787888 109.787887,180.589286 112.499999,180.589286 C115.212112,180.589286 117.410714,182.787888 117.410714,185.500001 Z" id="Path"></path>
                    <path d="M117.410714,204.500001 C117.410714,207.212113 115.212112,209.410714 112.499999,209.410714 C109.787887,209.410714 107.589286,207.212113 107.589286,204.500001 C107.589286,201.787888 109.787887,199.589286 112.499999,199.589286 C115.212112,199.589286 117.410714,201.787888 117.410714,204.500001 Z" id="Path"></path>
                    <path d="M117.410714,220.500001 C117.410714,223.212113 115.212112,225.410714 112.499999,225.410714 C109.787887,225.410714 107.589286,223.212113 107.589286,220.500001 C107.589286,217.787888 109.787887,215.589286 112.499999,215.589286 C115.212112,215.589286 117.410714,217.787888 117.410714,220.500001 Z" id="Path"></path>
                    <path d="M117.410714,238.500001 C117.410714,241.212113 115.212112,243.410714 112.499999,243.410714 C109.787887,243.410714 107.589286,241.212113 107.589286,238.500001 C107.589286,235.787888 109.787887,233.589286 112.499999,233.589286 C115.212112,233.589286 117.410714,235.787888 117.410714,238.500001 Z" id="Path"></path>
                    <path d="M117.410714,257.500001 C117.410714,260.212113 115.212112,262.410714 112.499999,262.410714 C109.787887,262.410714 107.589286,260.212113 107.589286,257.500001 C107.589286,254.787888 109.787887,252.589286 112.499999,252.589286 C115.212112,252.589286 117.410714,254.787888 117.410714,257.500001 Z" id="Path"></path>
                    <path d="M117.410714,276.500001 C117.410714,279.212113 115.212112,281.410714 112.499999,281.410714 C109.787887,281.410714 107.589286,279.212113 107.589286,276.500001 C107.589286,273.787888 109.787887,271.589286 112.499999,271.589286 C115.212112,271.589286 117.410714,273.787888 117.410714,276.500001 Z" id="Path"></path>
                    <path d="M117.410714,292.500001 C117.410714,295.212113 115.212112,297.410714 112.499999,297.410714 C109.787887,297.410714 107.589286,295.212113 107.589286,292.500001 C107.589286,289.787888 109.787887,287.589286 112.499999,287.589286 C115.212112,287.589286 117.410714,289.787888 117.410714,292.500001 Z" id="Path"></path>
                    <path d="M117.410714,311.500001 C117.410714,314.212113 115.212112,316.410714 112.499999,316.410714 C109.787887,316.410714 107.589286,314.212113 107.589286,311.500001 C107.589286,308.787888 109.787887,306.589286 112.499999,306.589286 C115.212112,306.589286 117.410714,308.787888 117.410714,311.500001 Z" id="Path"></path>
                    <path d="M117.410714,327.500001 C117.410714,330.212113 115.212112,332.410714 112.499999,332.410714 C109.787887,332.410714 107.589286,330.212113 107.589286,327.500001 C107.589286,324.787888 109.787887,322.589286 112.499999,322.589286 C115.212112,322.589286 117.410714,324.787888 117.410714,327.500001 Z" id="Path"></path>
                    <path d="M117.410714,346.500001 C117.410714,349.212113 115.212112,351.410714 112.499999,351.410714 C109.787887,351.410714 107.589286,349.212113 107.589286,346.500001 C107.589286,343.787888 109.787887,341.589286 112.499999,341.589286 C115.212112,341.589286 117.410714,343.787888 117.410714,346.500001 Z" id="Path"></path>
                    <path d="M117.410714,365.500001 C117.410714,368.212113 115.212112,370.410714 112.499999,370.410714 C109.787887,370.410714 107.589286,368.212113 107.589286,365.500001 C107.589286,362.787888 109.787887,360.589286 112.499999,360.589286 C115.212112,360.589286 117.410714,362.787888 117.410714,365.500001 Z" id="Path"></path>
                    <path d="M117.410714,381.500001 C117.410714,384.212113 115.212112,386.410714 112.499999,386.410714 C109.787887,386.410714 107.589286,384.212113 107.589286,381.500001 C107.589286,378.787888 109.787887,376.589286 112.499999,376.589286 C115.212112,376.589286 117.410714,378.787888 117.410714,381.500001 Z" id="Path"></path>
                    <path d="M117.410714,399.500001 C117.410714,402.212113 115.212112,404.410714 112.499999,404.410714 C109.787887,404.410714 107.589286,402.212113 107.589286,399.500001 C107.589286,396.787888 109.787887,394.589286 112.499999,394.589286 C115.212112,394.589286 117.410714,396.787888 117.410714,399.500001 Z" id="Path"></path>
                    <path d="M117.410714,416.500001 C117.410714,419.212113 115.212112,421.410714 112.499999,421.410714 C109.787887,421.410714 107.589286,419.212113 107.589286,416.500001 C107.589286,413.787888 109.787887,411.589286 112.499999,411.589286 C115.212112,411.589286 117.410714,413.787888 117.410714,416.500001 Z" id="Path"></path>
                    <path d="M136.410714,42.5000005 C136.410714,45.2121133 134.212112,47.4107141 131.499999,47.4107141 C128.787887,47.4107141 126.589286,45.2121133 126.589286,42.5000005 C126.589286,39.7878878 128.787887,37.5892859 131.499999,37.5892859 C134.212112,37.5892859 136.410714,39.7878878 136.410714,42.5000005 Z" id="Path"></path>
                    <path d="M136.410714,61.5000005 C136.410714,64.2121133 134.212112,66.410714 131.499999,66.410714 C128.787887,66.410714 126.589286,64.2121133 126.589286,61.5000005 C126.589286,58.7878878 128.787887,56.5892859 131.499999,56.5892859 C134.212112,56.5892859 136.410714,58.7878878 136.410714,61.5000005 Z" id="Path"></path>
                    <path d="M136.410714,77.5000005 C136.410714,80.2121133 134.212112,82.410714 131.499999,82.410714 C128.787887,82.410714 126.589286,80.2121133 126.589286,77.5000005 C126.589286,74.7878879 128.787887,72.589286 131.499999,72.589286 C134.212112,72.589286 136.410714,74.7878879 136.410714,77.5000005 Z" id="Path"></path>
                    <path d="M136.410714,96.5000005 C136.410714,99.2121133 134.212112,101.410714 131.499999,101.410714 C128.787887,101.410714 126.589286,99.2121133 126.589286,96.5000005 C126.589286,93.7878879 128.787887,91.589286 131.499999,91.589286 C134.212112,91.589286 136.410714,93.7878879 136.410714,96.5000005 Z" id="Path"></path>
                    <path d="M136.410714,115.500001 C136.410714,118.212113 134.212112,120.410714 131.499999,120.410714 C128.787887,120.410714 126.589286,118.212113 126.589286,115.500001 C126.589286,112.787888 128.787887,110.589286 131.499999,110.589286 C134.212112,110.589286 136.410714,112.787888 136.410714,115.500001 Z" id="Path"></path>
                    <path d="M136.410714,131.500001 C136.410714,134.212113 134.212112,136.410714 131.499999,136.410714 C128.787887,136.410714 126.589286,134.212113 126.589286,131.500001 C126.589286,128.787888 128.787887,126.589286 131.499999,126.589286 C134.212112,126.589286 136.410714,128.787888 136.410714,131.500001 Z" id="Path"></path>
                    <path d="M136.410714,150.500001 C136.410714,153.212113 134.212112,155.410714 131.499999,155.410714 C128.787887,155.410714 126.589286,153.212113 126.589286,150.500001 C126.589286,147.787888 128.787887,145.589286 131.499999,145.589286 C134.212112,145.589286 136.410714,147.787888 136.410714,150.500001 Z" id="Path"></path>
                    <path d="M136.410714,166.500001 C136.410714,169.212113 134.212112,171.410714 131.499999,171.410714 C128.787887,171.410714 126.589286,169.212113 126.589286,166.500001 C126.589286,163.787888 128.787887,161.589286 131.499999,161.589286 C134.212112,161.589286 136.410714,163.787888 136.410714,166.500001 Z" id="Path"></path>
                    <path d="M136.410714,185.500001 C136.410714,188.212113 134.212112,190.410714 131.499999,190.410714 C128.787887,190.410714 126.589286,188.212113 126.589286,185.500001 C126.589286,182.787888 128.787887,180.589286 131.499999,180.589286 C134.212112,180.589286 136.410714,182.787888 136.410714,185.500001 Z" id="Path"></path>
                    <path d="M136.410714,204.500001 C136.410714,207.212113 134.212112,209.410714 131.499999,209.410714 C128.787887,209.410714 126.589286,207.212113 126.589286,204.500001 C126.589286,201.787888 128.787887,199.589286 131.499999,199.589286 C134.212112,199.589286 136.410714,201.787888 136.410714,204.500001 Z" id="Path"></path>
                    <path d="M136.410714,220.500001 C136.410714,223.212113 134.212112,225.410714 131.499999,225.410714 C128.787887,225.410714 126.589286,223.212113 126.589286,220.500001 C126.589286,217.787888 128.787887,215.589286 131.499999,215.589286 C134.212112,215.589286 136.410714,217.787888 136.410714,220.500001 Z" id="Path"></path>
                    <path d="M136.410714,238.500001 C136.410714,241.212113 134.212112,243.410714 131.499999,243.410714 C128.787887,243.410714 126.589286,241.212113 126.589286,238.500001 C126.589286,235.787888 128.787887,233.589286 131.499999,233.589286 C134.212112,233.589286 136.410714,235.787888 136.410714,238.500001 Z" id="Path"></path>
                    <path d="M136.410714,257.500001 C136.410714,260.212113 134.212112,262.410714 131.499999,262.410714 C128.787887,262.410714 126.589286,260.212113 126.589286,257.500001 C126.589286,254.787888 128.787887,252.589286 131.499999,252.589286 C134.212112,252.589286 136.410714,254.787888 136.410714,257.500001 Z" id="Path"></path>
                    <path d="M136.410714,276.500001 C136.410714,279.212113 134.212112,281.410714 131.499999,281.410714 C128.787887,281.410714 126.589286,279.212113 126.589286,276.500001 C126.589286,273.787888 128.787887,271.589286 131.499999,271.589286 C134.212112,271.589286 136.410714,273.787888 136.410714,276.500001 Z" id="Path"></path>
                    <path d="M136.410714,292.500001 C136.410714,295.212113 134.212112,297.410714 131.499999,297.410714 C128.787887,297.410714 126.589286,295.212113 126.589286,292.500001 C126.589286,289.787888 128.787887,287.589286 131.499999,287.589286 C134.212112,287.589286 136.410714,289.787888 136.410714,292.500001 Z" id="Path"></path>
                    <path d="M136.410714,311.500001 C136.410714,314.212113 134.212112,316.410714 131.499999,316.410714 C128.787887,316.410714 126.589286,314.212113 126.589286,311.500001 C126.589286,308.787888 128.787887,306.589286 131.499999,306.589286 C134.212112,306.589286 136.410714,308.787888 136.410714,311.500001 Z" id="Path"></path>
                    <path d="M136.410714,327.500001 C136.410714,330.212113 134.212112,332.410714 131.499999,332.410714 C128.787887,332.410714 126.589286,330.212113 126.589286,327.500001 C126.589286,324.787888 128.787887,322.589286 131.499999,322.589286 C134.212112,322.589286 136.410714,324.787888 136.410714,327.500001 Z" id="Path"></path>
                    <path d="M136.410714,346.500001 C136.410714,349.212113 134.212112,351.410714 131.499999,351.410714 C128.787887,351.410714 126.589286,349.212113 126.589286,346.500001 C126.589286,343.787888 128.787887,341.589286 131.499999,341.589286 C134.212112,341.589286 136.410714,343.787888 136.410714,346.500001 Z" id="Path"></path>
                    <path d="M136.410714,365.500001 C136.410714,368.212113 134.212112,370.410714 131.499999,370.410714 C128.787887,370.410714 126.589286,368.212113 126.589286,365.500001 C126.589286,362.787888 128.787887,360.589286 131.499999,360.589286 C134.212112,360.589286 136.410714,362.787888 136.410714,365.500001 Z" id="Path"></path>
                    <path d="M136.410714,381.500001 C136.410714,384.212113 134.212112,386.410714 131.499999,386.410714 C128.787887,386.410714 126.589286,384.212113 126.589286,381.500001 C126.589286,378.787888 128.787887,376.589286 131.499999,376.589286 C134.212112,376.589286 136.410714,378.787888 136.410714,381.500001 Z" id="Path"></path>
                    <path d="M136.410714,399.500001 C136.410714,402.212113 134.212112,404.410714 131.499999,404.410714 C128.787887,404.410714 126.589286,402.212113 126.589286,399.500001 C126.589286,396.787888 128.787887,394.589286 131.499999,394.589286 C134.212112,394.589286 136.410714,396.787888 136.410714,399.500001 Z" id="Path"></path>
                    <path d="M136.410714,416.500001 C136.410714,419.212113 134.212112,421.410714 131.499999,421.410714 C128.787887,421.410714 126.589286,419.212113 126.589286,416.500001 C126.589286,413.787888 128.787887,411.589286 131.499999,411.589286 C134.212112,411.589286 136.410714,413.787888 136.410714,416.500001 Z" id="Path"></path>
                    <path d="M136.410714,434.500001 C136.410714,437.212113 134.212112,439.410714 131.499999,439.410714 C128.787887,439.410714 126.589286,437.212113 126.589286,434.500001 C126.589286,431.787888 128.787887,429.589286 131.499999,429.589286 C134.212112,429.589286 136.410714,431.787888 136.410714,434.500001 Z" id="Path"></path>
                    <path d="M136.410714,453.500001 C136.410714,456.212113 134.212112,458.410714 131.499999,458.410714 C128.787887,458.410714 126.589286,456.212113 126.589286,453.500001 C126.589286,450.787888 128.787887,448.589286 131.499999,448.589286 C134.212112,448.589286 136.410714,450.787888 136.410714,453.500001 Z" id="Path"></path>
                    <path d="M152.410714,26.5000005 C152.410714,29.2121133 150.212112,31.4107141 147.499999,31.4107141 C144.787887,31.4107141 142.589286,29.2121133 142.589286,26.5000005 C142.589286,23.7878878 144.787887,21.589286 147.499999,21.589286 C150.212112,21.589286 152.410714,23.7878878 152.410714,26.5000005 Z" id="Path"></path>
                    <path d="M152.410714,42.5000005 C152.410714,45.2121133 150.212112,47.4107141 147.499999,47.4107141 C144.787887,47.4107141 142.589286,45.2121133 142.589286,42.5000005 C142.589286,39.7878878 144.787887,37.5892859 147.499999,37.5892859 C150.212112,37.5892859 152.410714,39.7878878 152.410714,42.5000005 Z" id="Path"></path>
                    <path d="M152.410714,61.5000005 C152.410714,64.2121133 150.212112,66.410714 147.499999,66.410714 C144.787887,66.410714 142.589286,64.2121133 142.589286,61.5000005 C142.589286,58.7878878 144.787887,56.5892859 147.499999,56.5892859 C150.212112,56.5892859 152.410714,58.7878878 152.410714,61.5000005 Z" id="Path"></path>
                    <path d="M152.410714,77.5000005 C152.410714,80.2121133 150.212112,82.410714 147.499999,82.410714 C144.787887,82.410714 142.589286,80.2121133 142.589286,77.5000005 C142.589286,74.7878879 144.787887,72.589286 147.499999,72.589286 C150.212112,72.589286 152.410714,74.7878879 152.410714,77.5000005 Z" id="Path"></path>
                    <path d="M152.410714,96.5000005 C152.410714,99.2121133 150.212112,101.410714 147.499999,101.410714 C144.787887,101.410714 142.589286,99.2121133 142.589286,96.5000005 C142.589286,93.7878879 144.787887,91.589286 147.499999,91.589286 C150.212112,91.589286 152.410714,93.7878879 152.410714,96.5000005 Z" id="Path"></path>
                    <path d="M152.410714,115.500001 C152.410714,118.212113 150.212112,120.410714 147.499999,120.410714 C144.787887,120.410714 142.589286,118.212113 142.589286,115.500001 C142.589286,112.787888 144.787887,110.589286 147.499999,110.589286 C150.212112,110.589286 152.410714,112.787888 152.410714,115.500001 Z" id="Path"></path>
                    <path d="M152.410714,131.500001 C152.410714,134.212113 150.212112,136.410714 147.499999,136.410714 C144.787887,136.410714 142.589286,134.212113 142.589286,131.500001 C142.589286,128.787888 144.787887,126.589286 147.499999,126.589286 C150.212112,126.589286 152.410714,128.787888 152.410714,131.500001 Z" id="Path"></path>
                    <path d="M152.410714,150.500001 C152.410714,153.212113 150.212112,155.410714 147.499999,155.410714 C144.787887,155.410714 142.589286,153.212113 142.589286,150.500001 C142.589286,147.787888 144.787887,145.589286 147.499999,145.589286 C150.212112,145.589286 152.410714,147.787888 152.410714,150.500001 Z" id="Path"></path>
                    <path d="M152.410714,166.500001 C152.410714,169.212113 150.212112,171.410714 147.499999,171.410714 C144.787887,171.410714 142.589286,169.212113 142.589286,166.500001 C142.589286,163.787888 144.787887,161.589286 147.499999,161.589286 C150.212112,161.589286 152.410714,163.787888 152.410714,166.500001 Z" id="Path"></path>
                    <path d="M152.410714,185.500001 C152.410714,188.212113 150.212112,190.410714 147.499999,190.410714 C144.787887,190.410714 142.589286,188.212113 142.589286,185.500001 C142.589286,182.787888 144.787887,180.589286 147.499999,180.589286 C150.212112,180.589286 152.410714,182.787888 152.410714,185.500001 Z" id="Path"></path>
                    <path d="M152.410714,204.500001 C152.410714,207.212113 150.212112,209.410714 147.499999,209.410714 C144.787887,209.410714 142.589286,207.212113 142.589286,204.500001 C142.589286,201.787888 144.787887,199.589286 147.499999,199.589286 C150.212112,199.589286 152.410714,201.787888 152.410714,204.500001 Z" id="Path"></path>
                    <path d="M152.410714,220.500001 C152.410714,223.212113 150.212112,225.410714 147.499999,225.410714 C144.787887,225.410714 142.589286,223.212113 142.589286,220.500001 C142.589286,217.787888 144.787887,215.589286 147.499999,215.589286 C150.212112,215.589286 152.410714,217.787888 152.410714,220.500001 Z" id="Path"></path>
                    <path d="M152.410714,238.500001 C152.410714,241.212113 150.212112,243.410714 147.499999,243.410714 C144.787887,243.410714 142.589286,241.212113 142.589286,238.500001 C142.589286,235.787888 144.787887,233.589286 147.499999,233.589286 C150.212112,233.589286 152.410714,235.787888 152.410714,238.500001 Z" id="Path"></path>
                    <path d="M152.410714,257.500001 C152.410714,260.212113 150.212112,262.410714 147.499999,262.410714 C144.787887,262.410714 142.589286,260.212113 142.589286,257.500001 C142.589286,254.787888 144.787887,252.589286 147.499999,252.589286 C150.212112,252.589286 152.410714,254.787888 152.410714,257.500001 Z" id="Path"></path>
                    <path d="M152.410714,276.500001 C152.410714,279.212113 150.212112,281.410714 147.499999,281.410714 C144.787887,281.410714 142.589286,279.212113 142.589286,276.500001 C142.589286,273.787888 144.787887,271.589286 147.499999,271.589286 C150.212112,271.589286 152.410714,273.787888 152.410714,276.500001 Z" id="Path"></path>
                    <path d="M152.410714,292.500001 C152.410714,295.212113 150.212112,297.410714 147.499999,297.410714 C144.787887,297.410714 142.589286,295.212113 142.589286,292.500001 C142.589286,289.787888 144.787887,287.589286 147.499999,287.589286 C150.212112,287.589286 152.410714,289.787888 152.410714,292.500001 Z" id="Path"></path>
                    <path d="M152.410714,311.500001 C152.410714,314.212113 150.212112,316.410714 147.499999,316.410714 C144.787887,316.410714 142.589286,314.212113 142.589286,311.500001 C142.589286,308.787888 144.787887,306.589286 147.499999,306.589286 C150.212112,306.589286 152.410714,308.787888 152.410714,311.500001 Z" id="Path"></path>
                    <path d="M152.410714,327.500001 C152.410714,330.212113 150.212112,332.410714 147.499999,332.410714 C144.787887,332.410714 142.589286,330.212113 142.589286,327.500001 C142.589286,324.787888 144.787887,322.589286 147.499999,322.589286 C150.212112,322.589286 152.410714,324.787888 152.410714,327.500001 Z" id="Path"></path>
                    <path d="M152.410714,346.500001 C152.410714,349.212113 150.212112,351.410714 147.499999,351.410714 C144.787887,351.410714 142.589286,349.212113 142.589286,346.500001 C142.589286,343.787888 144.787887,341.589286 147.499999,341.589286 C150.212112,341.589286 152.410714,343.787888 152.410714,346.500001 Z" id="Path"></path>
                    <path d="M152.410714,365.500001 C152.410714,368.212113 150.212112,370.410714 147.499999,370.410714 C144.787887,370.410714 142.589286,368.212113 142.589286,365.500001 C142.589286,362.787888 144.787887,360.589286 147.499999,360.589286 C150.212112,360.589286 152.410714,362.787888 152.410714,365.500001 Z" id="Path"></path>
                    <path d="M152.410714,381.500001 C152.410714,384.212113 150.212112,386.410714 147.499999,386.410714 C144.787887,386.410714 142.589286,384.212113 142.589286,381.500001 C142.589286,378.787888 144.787887,376.589286 147.499999,376.589286 C150.212112,376.589286 152.410714,378.787888 152.410714,381.500001 Z" id="Path"></path>
                    <path d="M152.410714,399.500001 C152.410714,402.212113 150.212112,404.410714 147.499999,404.410714 C144.787887,404.410714 142.589286,402.212113 142.589286,399.500001 C142.589286,396.787888 144.787887,394.589286 147.499999,394.589286 C150.212112,394.589286 152.410714,396.787888 152.410714,399.500001 Z" id="Path"></path>
                    <path d="M152.410714,416.500001 C152.410714,419.212113 150.212112,421.410714 147.499999,421.410714 C144.787887,421.410714 142.589286,419.212113 142.589286,416.500001 C142.589286,413.787888 144.787887,411.589286 147.499999,411.589286 C150.212112,411.589286 152.410714,413.787888 152.410714,416.500001 Z" id="Path"></path>
                    <path d="M152.410714,434.500001 C152.410714,437.212113 150.212112,439.410714 147.499999,439.410714 C144.787887,439.410714 142.589286,437.212113 142.589286,434.500001 C142.589286,431.787888 144.787887,429.589286 147.499999,429.589286 C150.212112,429.589286 152.410714,431.787888 152.410714,434.500001 Z" id="Path"></path>
                    <path d="M171.410714,26.5000005 C171.410714,29.2121133 169.212112,31.4107141 166.499999,31.4107141 C163.787887,31.4107141 161.589286,29.2121133 161.589286,26.5000005 C161.589286,23.7878878 163.787887,21.589286 166.499999,21.589286 C169.212112,21.589286 171.410714,23.7878878 171.410714,26.5000005 Z" id="Path"></path>
                    <path d="M171.410714,42.5000005 C171.410714,45.2121133 169.212112,47.4107141 166.499999,47.4107141 C163.787887,47.4107141 161.589286,45.2121133 161.589286,42.5000005 C161.589286,39.7878878 163.787887,37.5892859 166.499999,37.5892859 C169.212112,37.5892859 171.410714,39.7878878 171.410714,42.5000005 Z" id="Path"></path>
                    <path d="M171.410714,61.5000005 C171.410714,64.2121133 169.212112,66.410714 166.499999,66.410714 C163.787887,66.410714 161.589286,64.2121133 161.589286,61.5000005 C161.589286,58.7878878 163.787887,56.5892859 166.499999,56.5892859 C169.212112,56.5892859 171.410714,58.7878878 171.410714,61.5000005 Z" id="Path"></path>
                    <path d="M171.410714,77.5000005 C171.410714,80.2121133 169.212112,82.410714 166.499999,82.410714 C163.787887,82.410714 161.589286,80.2121133 161.589286,77.5000005 C161.589286,74.7878879 163.787887,72.589286 166.499999,72.589286 C169.212112,72.589286 171.410714,74.7878879 171.410714,77.5000005 Z" id="Path"></path>
                    <path d="M171.410714,115.500001 C171.410714,118.212113 169.212112,120.410714 166.499999,120.410714 C163.787887,120.410714 161.589286,118.212113 161.589286,115.500001 C161.589286,112.787888 163.787887,110.589286 166.499999,110.589286 C169.212112,110.589286 171.410714,112.787888 171.410714,115.500001 Z" id="Path"></path>
                    <path d="M171.410714,131.500001 C171.410714,134.212113 169.212112,136.410714 166.499999,136.410714 C163.787887,136.410714 161.589286,134.212113 161.589286,131.500001 C161.589286,128.787888 163.787887,126.589286 166.499999,126.589286 C169.212112,126.589286 171.410714,128.787888 171.410714,131.500001 Z" id="Path"></path>
                    <path d="M171.410714,150.500001 C171.410714,153.212113 169.212112,155.410714 166.499999,155.410714 C163.787887,155.410714 161.589286,153.212113 161.589286,150.500001 C161.589286,147.787888 163.787887,145.589286 166.499999,145.589286 C169.212112,145.589286 171.410714,147.787888 171.410714,150.500001 Z" id="Path"></path>
                    <path d="M171.410714,166.500001 C171.410714,169.212113 169.212112,171.410714 166.499999,171.410714 C163.787887,171.410714 161.589286,169.212113 161.589286,166.500001 C161.589286,163.787888 163.787887,161.589286 166.499999,161.589286 C169.212112,161.589286 171.410714,163.787888 171.410714,166.500001 Z" id="Path"></path>
                    <path d="M171.410714,185.500001 C171.410714,188.212113 169.212112,190.410714 166.499999,190.410714 C163.787887,190.410714 161.589286,188.212113 161.589286,185.500001 C161.589286,182.787888 163.787887,180.589286 166.499999,180.589286 C169.212112,180.589286 171.410714,182.787888 171.410714,185.500001 Z" id="Path"></path>
                    <path d="M171.410714,204.500001 C171.410714,207.212113 169.212112,209.410714 166.499999,209.410714 C163.787887,209.410714 161.589286,207.212113 161.589286,204.500001 C161.589286,201.787888 163.787887,199.589286 166.499999,199.589286 C169.212112,199.589286 171.410714,201.787888 171.410714,204.500001 Z" id="Path"></path>
                    <path d="M171.410714,220.500001 C171.410714,223.212113 169.212112,225.410714 166.499999,225.410714 C163.787887,225.410714 161.589286,223.212113 161.589286,220.500001 C161.589286,217.787888 163.787887,215.589286 166.499999,215.589286 C169.212112,215.589286 171.410714,217.787888 171.410714,220.500001 Z" id="Path"></path>
                    <path d="M171.410714,238.500001 C171.410714,241.212113 169.212112,243.410714 166.499999,243.410714 C163.787887,243.410714 161.589286,241.212113 161.589286,238.500001 C161.589286,235.787888 163.787887,233.589286 166.499999,233.589286 C169.212112,233.589286 171.410714,235.787888 171.410714,238.500001 Z" id="Path"></path>
                    <path d="M171.410714,257.500001 C171.410714,260.212113 169.212112,262.410714 166.499999,262.410714 C163.787887,262.410714 161.589286,260.212113 161.589286,257.500001 C161.589286,254.787888 163.787887,252.589286 166.499999,252.589286 C169.212112,252.589286 171.410714,254.787888 171.410714,257.500001 Z" id="Path"></path>
                    <path d="M171.410714,276.500001 C171.410714,279.212113 169.212112,281.410714 166.499999,281.410714 C163.787887,281.410714 161.589286,279.212113 161.589286,276.500001 C161.589286,273.787888 163.787887,271.589286 166.499999,271.589286 C169.212112,271.589286 171.410714,273.787888 171.410714,276.500001 Z" id="Path"></path>
                    <path d="M171.410714,292.500001 C171.410714,295.212113 169.212112,297.410714 166.499999,297.410714 C163.787887,297.410714 161.589286,295.212113 161.589286,292.500001 C161.589286,289.787888 163.787887,287.589286 166.499999,287.589286 C169.212112,287.589286 171.410714,289.787888 171.410714,292.500001 Z" id="Path"></path>
                    <path d="M171.410714,311.500001 C171.410714,314.212113 169.212112,316.410714 166.499999,316.410714 C163.787887,316.410714 161.589286,314.212113 161.589286,311.500001 C161.589286,308.787888 163.787887,306.589286 166.499999,306.589286 C169.212112,306.589286 171.410714,308.787888 171.410714,311.500001 Z" id="Path"></path>
                    <path d="M171.410714,327.500001 C171.410714,330.212113 169.212112,332.410714 166.499999,332.410714 C163.787887,332.410714 161.589286,330.212113 161.589286,327.500001 C161.589286,324.787888 163.787887,322.589286 166.499999,322.589286 C169.212112,322.589286 171.410714,324.787888 171.410714,327.500001 Z" id="Path"></path>
                    <path d="M171.410714,346.500001 C171.410714,349.212113 169.212112,351.410714 166.499999,351.410714 C163.787887,351.410714 161.589286,349.212113 161.589286,346.500001 C161.589286,343.787888 163.787887,341.589286 166.499999,341.589286 C169.212112,341.589286 171.410714,343.787888 171.410714,346.500001 Z" id="Path"></path>
                    <path d="M171.410714,365.500001 C171.410714,368.212113 169.212112,370.410714 166.499999,370.410714 C163.787887,370.410714 161.589286,368.212113 161.589286,365.500001 C161.589286,362.787888 163.787887,360.589286 166.499999,360.589286 C169.212112,360.589286 171.410714,362.787888 171.410714,365.500001 Z" id="Path"></path>
                    <path d="M171.410714,381.500001 C171.410714,384.212113 169.212112,386.410714 166.499999,386.410714 C163.787887,386.410714 161.589286,384.212113 161.589286,381.500001 C161.589286,378.787888 163.787887,376.589286 166.499999,376.589286 C169.212112,376.589286 171.410714,378.787888 171.410714,381.500001 Z" id="Path"></path>
                    <path d="M171.410714,399.500001 C171.410714,402.212113 169.212112,404.410714 166.499999,404.410714 C163.787887,404.410714 161.589286,402.212113 161.589286,399.500001 C161.589286,396.787888 163.787887,394.589286 166.499999,394.589286 C169.212112,394.589286 171.410714,396.787888 171.410714,399.500001 Z" id="Path"></path>
                    <path d="M171.410714,416.500001 C171.410714,419.212113 169.212112,421.410714 166.499999,421.410714 C163.787887,421.410714 161.589286,419.212113 161.589286,416.500001 C161.589286,413.787888 163.787887,411.589286 166.499999,411.589286 C169.212112,411.589286 171.410714,413.787888 171.410714,416.500001 Z" id="Path"></path>
                    <path d="M190.410714,131.500001 C190.410714,134.212113 188.212112,136.410714 185.499999,136.410714 C182.787887,136.410714 180.589286,134.212113 180.589286,131.500001 C180.589286,128.787888 182.787887,126.589286 185.499999,126.589286 C188.212112,126.589286 190.410714,128.787888 190.410714,131.500001 Z" id="Path"></path>
                    <path d="M190.410714,150.500001 C190.410714,153.212113 188.212112,155.410714 185.499999,155.410714 C182.787887,155.410714 180.589286,153.212113 180.589286,150.500001 C180.589286,147.787888 182.787887,145.589286 185.499999,145.589286 C188.212112,145.589286 190.410714,147.787888 190.410714,150.500001 Z" id="Path"></path>
                    <path d="M190.410714,166.500001 C190.410714,169.212113 188.212112,171.410714 185.499999,171.410714 C182.787887,171.410714 180.589286,169.212113 180.589286,166.500001 C180.589286,163.787888 182.787887,161.589286 185.499999,161.589286 C188.212112,161.589286 190.410714,163.787888 190.410714,166.500001 Z" id="Path"></path>
                    <path d="M190.410714,185.500001 C190.410714,188.212113 188.212112,190.410714 185.499999,190.410714 C182.787887,190.410714 180.589286,188.212113 180.589286,185.500001 C180.589286,182.787888 182.787887,180.589286 185.499999,180.589286 C188.212112,180.589286 190.410714,182.787888 190.410714,185.500001 Z" id="Path"></path>
                    <path d="M190.410714,204.500001 C190.410714,207.212113 188.212112,209.410714 185.499999,209.410714 C182.787887,209.410714 180.589286,207.212113 180.589286,204.500001 C180.589286,201.787888 182.787887,199.589286 185.499999,199.589286 C188.212112,199.589286 190.410714,201.787888 190.410714,204.500001 Z" id="Path"></path>
                    <path d="M190.410714,220.500001 C190.410714,223.212113 188.212112,225.410714 185.499999,225.410714 C182.787887,225.410714 180.589286,223.212113 180.589286,220.500001 C180.589286,217.787888 182.787887,215.589286 185.499999,215.589286 C188.212112,215.589286 190.410714,217.787888 190.410714,220.500001 Z" id="Path"></path>
                    <path d="M190.410714,238.500001 C190.410714,241.212113 188.212112,243.410714 185.499999,243.410714 C182.787887,243.410714 180.589286,241.212113 180.589286,238.500001 C180.589286,235.787888 182.787887,233.589286 185.499999,233.589286 C188.212112,233.589286 190.410714,235.787888 190.410714,238.500001 Z" id="Path"></path>
                    <path d="M190.410714,257.500001 C190.410714,260.212113 188.212112,262.410714 185.499999,262.410714 C182.787887,262.410714 180.589286,260.212113 180.589286,257.500001 C180.589286,254.787888 182.787887,252.589286 185.499999,252.589286 C188.212112,252.589286 190.410714,254.787888 190.410714,257.500001 Z" id="Path"></path>
                    <path d="M190.410714,276.500001 C190.410714,279.212113 188.212112,281.410714 185.499999,281.410714 C182.787887,281.410714 180.589286,279.212113 180.589286,276.500001 C180.589286,273.787888 182.787887,271.589286 185.499999,271.589286 C188.212112,271.589286 190.410714,273.787888 190.410714,276.500001 Z" id="Path"></path>
                    <path d="M190.410714,292.500001 C190.410714,295.212113 188.212112,297.410714 185.499999,297.410714 C182.787887,297.410714 180.589286,295.212113 180.589286,292.500001 C180.589286,289.787888 182.787887,287.589286 185.499999,287.589286 C188.212112,287.589286 190.410714,289.787888 190.410714,292.500001 Z" id="Path"></path>
                    <path d="M190.410714,311.500001 C190.410714,314.212113 188.212112,316.410714 185.499999,316.410714 C182.787887,316.410714 180.589286,314.212113 180.589286,311.500001 C180.589286,308.787888 182.787887,306.589286 185.499999,306.589286 C188.212112,306.589286 190.410714,308.787888 190.410714,311.500001 Z" id="Path"></path>
                    <path d="M190.410714,327.500001 C190.410714,330.212113 188.212112,332.410714 185.499999,332.410714 C182.787887,332.410714 180.589286,330.212113 180.589286,327.500001 C180.589286,324.787888 182.787887,322.589286 185.499999,322.589286 C188.212112,322.589286 190.410714,324.787888 190.410714,327.500001 Z" id="Path"></path>
                    <path d="M190.410714,346.500001 C190.410714,349.212113 188.212112,351.410714 185.499999,351.410714 C182.787887,351.410714 180.589286,349.212113 180.589286,346.500001 C180.589286,343.787888 182.787887,341.589286 185.499999,341.589286 C188.212112,341.589286 190.410714,343.787888 190.410714,346.500001 Z" id="Path"></path>
                    <path d="M206.410714,166.500001 C206.410714,169.212113 204.212112,171.410714 201.499999,171.410714 C198.787887,171.410714 196.589286,169.212113 196.589286,166.500001 C196.589286,163.787888 198.787887,161.589286 201.499999,161.589286 C204.212112,161.589286 206.410714,163.787888 206.410714,166.500001 Z" id="Path"></path>
                    <path d="M206.410714,185.500001 C206.410714,188.212113 204.212112,190.410714 201.499999,190.410714 C198.787887,190.410714 196.589286,188.212113 196.589286,185.500001 C196.589286,182.787888 198.787887,180.589286 201.499999,180.589286 C204.212112,180.589286 206.410714,182.787888 206.410714,185.500001 Z" id="Path"></path>
                    <path d="M206.410714,204.500001 C206.410714,207.212113 204.212112,209.410714 201.499999,209.410714 C198.787887,209.410714 196.589286,207.212113 196.589286,204.500001 C196.589286,201.787888 198.787887,199.589286 201.499999,199.589286 C204.212112,199.589286 206.410714,201.787888 206.410714,204.500001 Z" id="Path"></path>
                    <path d="M206.410714,220.500001 C206.410714,223.212113 204.212112,225.410714 201.499999,225.410714 C198.787887,225.410714 196.589286,223.212113 196.589286,220.500001 C196.589286,217.787888 198.787887,215.589286 201.499999,215.589286 C204.212112,215.589286 206.410714,217.787888 206.410714,220.500001 Z" id="Path"></path>
                    <path d="M206.410714,238.500001 C206.410714,241.212113 204.212112,243.410714 201.499999,243.410714 C198.787887,243.410714 196.589286,241.212113 196.589286,238.500001 C196.589286,235.787888 198.787887,233.589286 201.499999,233.589286 C204.212112,233.589286 206.410714,235.787888 206.410714,238.500001 Z" id="Path"></path>
                    <path d="M206.410714,257.500001 C206.410714,260.212113 204.212112,262.410714 201.499999,262.410714 C198.787887,262.410714 196.589286,260.212113 196.589286,257.500001 C196.589286,254.787888 198.787887,252.589286 201.499999,252.589286 C204.212112,252.589286 206.410714,254.787888 206.410714,257.500001 Z" id="Path"></path>
                    <path d="M206.410714,276.500001 C206.410714,279.212113 204.212112,281.410714 201.499999,281.410714 C198.787887,281.410714 196.589286,279.212113 196.589286,276.500001 C196.589286,273.787888 198.787887,271.589286 201.499999,271.589286 C204.212112,271.589286 206.410714,273.787888 206.410714,276.500001 Z" id="Path"></path>
                    <path d="M206.410714,292.500001 C206.410714,295.212113 204.212112,297.410714 201.499999,297.410714 C198.787887,297.410714 196.589286,295.212113 196.589286,292.500001 C196.589286,289.787888 198.787887,287.589286 201.499999,287.589286 C204.212112,287.589286 206.410714,289.787888 206.410714,292.500001 Z" id="Path"></path>
                    <path d="M206.410714,311.500001 C206.410714,314.212113 204.212112,316.410714 201.499999,316.410714 C198.787887,316.410714 196.589286,314.212113 196.589286,311.500001 C196.589286,308.787888 198.787887,306.589286 201.499999,306.589286 C204.212112,306.589286 206.410714,308.787888 206.410714,311.500001 Z" id="Path"></path>
                    <path d="M206.410714,327.500001 C206.410714,330.212113 204.212112,332.410714 201.499999,332.410714 C198.787887,332.410714 196.589286,330.212113 196.589286,327.500001 C196.589286,324.787888 198.787887,322.589286 201.499999,322.589286 C204.212112,322.589286 206.410714,324.787888 206.410714,327.500001 Z" id="Path"></path>
                    <path d="M224.410714,166.500001 C224.410714,169.212113 222.212112,171.410714 219.499999,171.410714 C216.787887,171.410714 214.589286,169.212113 214.589286,166.500001 C214.589286,163.787888 216.787887,161.589286 219.499999,161.589286 C222.212112,161.589286 224.410714,163.787888 224.410714,166.500001 Z" id="Path"></path>
                    <path d="M224.410714,185.500001 C224.410714,188.212113 222.212112,190.410714 219.499999,190.410714 C216.787887,190.410714 214.589286,188.212113 214.589286,185.500001 C214.589286,182.787888 216.787887,180.589286 219.499999,180.589286 C222.212112,180.589286 224.410714,182.787888 224.410714,185.500001 Z" id="Path"></path>
                    <path d="M224.410714,204.500001 C224.410714,207.212113 222.212112,209.410714 219.499999,209.410714 C216.787887,209.410714 214.589286,207.212113 214.589286,204.500001 C214.589286,201.787888 216.787887,199.589286 219.499999,199.589286 C222.212112,199.589286 224.410714,201.787888 224.410714,204.500001 Z" id="Path"></path>
                    <path d="M224.410714,220.500001 C224.410714,223.212113 222.212112,225.410714 219.499999,225.410714 C216.787887,225.410714 214.589286,223.212113 214.589286,220.500001 C214.589286,217.787888 216.787887,215.589286 219.499999,215.589286 C222.212112,215.589286 224.410714,217.787888 224.410714,220.500001 Z" id="Path"></path>
                    <path d="M224.410714,238.500001 C224.410714,241.212113 222.212112,243.410714 219.499999,243.410714 C216.787887,243.410714 214.589286,241.212113 214.589286,238.500001 C214.589286,235.787888 216.787887,233.589286 219.499999,233.589286 C222.212112,233.589286 224.410714,235.787888 224.410714,238.500001 Z" id="Path"></path>
                    <path d="M224.410714,257.500001 C224.410714,260.212113 222.212112,262.410714 219.499999,262.410714 C216.787887,262.410714 214.589286,260.212113 214.589286,257.500001 C214.589286,254.787888 216.787887,252.589286 219.499999,252.589286 C222.212112,252.589286 224.410714,254.787888 224.410714,257.500001 Z" id="Path"></path>
                    <path d="M224.410714,276.500001 C224.410714,279.212113 222.212112,281.410714 219.499999,281.410714 C216.787887,281.410714 214.589286,279.212113 214.589286,276.500001 C214.589286,273.787888 216.787887,271.589286 219.499999,271.589286 C222.212112,271.589286 224.410714,273.787888 224.410714,276.500001 Z" id="Path"></path>
                    <path d="M224.410714,292.500001 C224.410714,295.212113 222.212112,297.410714 219.499999,297.410714 C216.787887,297.410714 214.589286,295.212113 214.589286,292.500001 C214.589286,289.787888 216.787887,287.589286 219.499999,287.589286 C222.212112,287.589286 224.410714,289.787888 224.410714,292.500001 Z" id="Path"></path>
                    <path d="M224.410714,311.500001 C224.410714,314.212113 222.212112,316.410714 219.499999,316.410714 C216.787887,316.410714 214.589286,314.212113 214.589286,311.500001 C214.589286,308.787888 216.787887,306.589286 219.499999,306.589286 C222.212112,306.589286 224.410714,308.787888 224.410714,311.500001 Z" id="Path"></path>
                    <path d="M240.410714,166.500001 C240.410714,169.212113 238.212112,171.410714 235.499999,171.410714 C232.787887,171.410714 230.589286,169.212113 230.589286,166.500001 C230.589286,163.787888 232.787887,161.589286 235.499999,161.589286 C238.212112,161.589286 240.410714,163.787888 240.410714,166.500001 Z" id="Path"></path>
                    <path d="M240.410714,185.500001 C240.410714,188.212113 238.212112,190.410714 235.499999,190.410714 C232.787887,190.410714 230.589286,188.212113 230.589286,185.500001 C230.589286,182.787888 232.787887,180.589286 235.499999,180.589286 C238.212112,180.589286 240.410714,182.787888 240.410714,185.500001 Z" id="Path"></path>
                    <path d="M240.410714,204.500001 C240.410714,207.212113 238.212112,209.410714 235.499999,209.410714 C232.787887,209.410714 230.589286,207.212113 230.589286,204.500001 C230.589286,201.787888 232.787887,199.589286 235.499999,199.589286 C238.212112,199.589286 240.410714,201.787888 240.410714,204.500001 Z" id="Path"></path>
                    <path d="M240.410714,220.500001 C240.410714,223.212113 238.212112,225.410714 235.499999,225.410714 C232.787887,225.410714 230.589286,223.212113 230.589286,220.500001 C230.589286,217.787888 232.787887,215.589286 235.499999,215.589286 C238.212112,215.589286 240.410714,217.787888 240.410714,220.500001 Z" id="Path"></path>
                    <path d="M240.410714,238.500001 C240.410714,241.212113 238.212112,243.410714 235.499999,243.410714 C232.787887,243.410714 230.589286,241.212113 230.589286,238.500001 C230.589286,235.787888 232.787887,233.589286 235.499999,233.589286 C238.212112,233.589286 240.410714,235.787888 240.410714,238.500001 Z" id="Path"></path>
                    <path d="M240.410714,257.500001 C240.410714,260.212113 238.212112,262.410714 235.499999,262.410714 C232.787887,262.410714 230.589286,260.212113 230.589286,257.500001 C230.589286,254.787888 232.787887,252.589286 235.499999,252.589286 C238.212112,252.589286 240.410714,254.787888 240.410714,257.500001 Z" id="Path"></path>
                    <path d="M240.410714,276.500001 C240.410714,279.212113 238.212112,281.410714 235.499999,281.410714 C232.787887,281.410714 230.589286,279.212113 230.589286,276.500001 C230.589286,273.787888 232.787887,271.589286 235.499999,271.589286 C238.212112,271.589286 240.410714,273.787888 240.410714,276.500001 Z" id="Path"></path>
                    <path d="M240.410714,292.500001 C240.410714,295.212113 238.212112,297.410714 235.499999,297.410714 C232.787887,297.410714 230.589286,295.212113 230.589286,292.500001 C230.589286,289.787888 232.787887,287.589286 235.499999,287.589286 C238.212112,287.589286 240.410714,289.787888 240.410714,292.500001 Z" id="Path"></path>
                    <path d="M259.410714,185.500001 C259.410714,188.212113 257.212112,190.410714 254.499999,190.410714 C251.787887,190.410714 249.589286,188.212113 249.589286,185.500001 C249.589286,182.787888 251.787887,180.589286 254.499999,180.589286 C257.212112,180.589286 259.410714,182.787888 259.410714,185.500001 Z" id="Path"></path>
                    <path d="M259.410714,204.500001 C259.410714,207.212113 257.212112,209.410714 254.499999,209.410714 C251.787887,209.410714 249.589286,207.212113 249.589286,204.500001 C249.589286,201.787888 251.787887,199.589286 254.499999,199.589286 C257.212112,199.589286 259.410714,201.787888 259.410714,204.500001 Z" id="Path"></path>
                    <path d="M259.410714,220.500001 C259.410714,223.212113 257.212112,225.410714 254.499999,225.410714 C251.787887,225.410714 249.589286,223.212113 249.589286,220.500001 C249.589286,217.787888 251.787887,215.589286 254.499999,215.589286 C257.212112,215.589286 259.410714,217.787888 259.410714,220.500001 Z" id="Path"></path>
                    <path d="M259.410714,238.500001 C259.410714,241.212113 257.212112,243.410714 254.499999,243.410714 C251.787887,243.410714 249.589286,241.212113 249.589286,238.500001 C249.589286,235.787888 251.787887,233.589286 254.499999,233.589286 C257.212112,233.589286 259.410714,235.787888 259.410714,238.500001 Z" id="Path"></path>
                    <path d="M259.410714,257.500001 C259.410714,260.212113 257.212112,262.410714 254.499999,262.410714 C251.787887,262.410714 249.589286,260.212113 249.589286,257.500001 C249.589286,254.787888 251.787887,252.589286 254.499999,252.589286 C257.212112,252.589286 259.410714,254.787888 259.410714,257.500001 Z" id="Path"></path>
                    <path d="M259.410714,276.500001 C259.410714,279.212113 257.212112,281.410714 254.499999,281.410714 C251.787887,281.410714 249.589286,279.212113 249.589286,276.500001 C249.589286,273.787888 251.787887,271.589286 254.499999,271.589286 C257.212112,271.589286 259.410714,273.787888 259.410714,276.500001 Z" id="Path"></path>
                    <path d="M278.410714,185.500001 C278.410714,188.212113 276.212112,190.410714 273.499999,190.410714 C270.787887,190.410714 268.589286,188.212113 268.589286,185.500001 C268.589286,182.787888 270.787887,180.589286 273.499999,180.589286 C276.212112,180.589286 278.410714,182.787888 278.410714,185.500001 Z" id="Path"></path>
                    <path d="M278.410714,204.500001 C278.410714,207.212113 276.212112,209.410714 273.499999,209.410714 C270.787887,209.410714 268.589286,207.212113 268.589286,204.500001 C268.589286,201.787888 270.787887,199.589286 273.499999,199.589286 C276.212112,199.589286 278.410714,201.787888 278.410714,204.500001 Z" id="Path"></path>
                    <path d="M278.410714,220.500001 C278.410714,223.212113 276.212112,225.410714 273.499999,225.410714 C270.787887,225.410714 268.589286,223.212113 268.589286,220.500001 C268.589286,217.787888 270.787887,215.589286 273.499999,215.589286 C276.212112,215.589286 278.410714,217.787888 278.410714,220.500001 Z" id="Path"></path>
                    <path d="M278.410714,238.500001 C278.410714,241.212113 276.212112,243.410714 273.499999,243.410714 C270.787887,243.410714 268.589286,241.212113 268.589286,238.500001 C268.589286,235.787888 270.787887,233.589286 273.499999,233.589286 C276.212112,233.589286 278.410714,235.787888 278.410714,238.500001 Z" id="Path"></path>
                    <path d="M278.410714,257.500001 C278.410714,260.212113 276.212112,262.410714 273.499999,262.410714 C270.787887,262.410714 268.589286,260.212113 268.589286,257.500001 C268.589286,254.787888 270.787887,252.589286 273.499999,252.589286 C276.212112,252.589286 278.410714,254.787888 278.410714,257.500001 Z" id="Path"></path>
                    <path d="M278.410714,276.500001 C278.410714,279.212113 276.212112,281.410714 273.499999,281.410714 C270.787887,281.410714 268.589286,279.212113 268.589286,276.500001 C268.589286,273.787888 270.787887,271.589286 273.499999,271.589286 C276.212112,271.589286 278.410714,273.787888 278.410714,276.500001 Z" id="Path"></path>
                    <path d="M297.410714,166.500001 C297.410714,169.212113 295.212112,171.410714 292.499999,171.410714 C289.787887,171.410714 287.589286,169.212113 287.589286,166.500001 C287.589286,163.787888 289.787887,161.589286 292.499999,161.589286 C295.212112,161.589286 297.410714,163.787888 297.410714,166.500001 Z" id="Path"></path>
                    <path d="M297.410714,185.500001 C297.410714,188.212113 295.212112,190.410714 292.499999,190.410714 C289.787887,190.410714 287.589286,188.212113 287.589286,185.500001 C287.589286,182.787888 289.787887,180.589286 292.499999,180.589286 C295.212112,180.589286 297.410714,182.787888 297.410714,185.500001 Z" id="Path"></path>
                    <path d="M297.410714,204.500001 C297.410714,207.212113 295.212112,209.410714 292.499999,209.410714 C289.787887,209.410714 287.589286,207.212113 287.589286,204.500001 C287.589286,201.787888 289.787887,199.589286 292.499999,199.589286 C295.212112,199.589286 297.410714,201.787888 297.410714,204.500001 Z" id="Path"></path>
                    <path d="M297.410714,220.500001 C297.410714,223.212113 295.212112,225.410714 292.499999,225.410714 C289.787887,225.410714 287.589286,223.212113 287.589286,220.500001 C287.589286,217.787888 289.787887,215.589286 292.499999,215.589286 C295.212112,215.589286 297.410714,217.787888 297.410714,220.500001 Z" id="Path"></path>
                    <path d="M297.410714,238.500001 C297.410714,241.212113 295.212112,243.410714 292.499999,243.410714 C289.787887,243.410714 287.589286,241.212113 287.589286,238.500001 C287.589286,235.787888 289.787887,233.589286 292.499999,233.589286 C295.212112,233.589286 297.410714,235.787888 297.410714,238.500001 Z" id="Path"></path>
                    <path d="M297.410714,257.500001 C297.410714,260.212113 295.212112,262.410714 292.499999,262.410714 C289.787887,262.410714 287.589286,260.212113 287.589286,257.500001 C287.589286,254.787888 289.787887,252.589286 292.499999,252.589286 C295.212112,252.589286 297.410714,254.787888 297.410714,257.500001 Z" id="Path"></path>
                    <path d="M313.410714,185.500001 C313.410714,188.212113 311.212112,190.410714 308.499999,190.410714 C305.787887,190.410714 303.589286,188.212113 303.589286,185.500001 C303.589286,182.787888 305.787887,180.589286 308.499999,180.589286 C311.212112,180.589286 313.410714,182.787888 313.410714,185.500001 Z" id="Path"></path>
                    <path d="M313.410714,204.500001 C313.410714,207.212113 311.212112,209.410714 308.499999,209.410714 C305.787887,209.410714 303.589286,207.212113 303.589286,204.500001 C303.589286,201.787888 305.787887,199.589286 308.499999,199.589286 C311.212112,199.589286 313.410714,201.787888 313.410714,204.500001 Z" id="Path"></path>
                    <path d="M332.410714,185.500001 C332.410714,188.212113 330.212112,190.410714 327.499999,190.410714 C324.787887,190.410714 322.589286,188.212113 322.589286,185.500001 C322.589286,182.787888 324.787887,180.589286 327.499999,180.589286 C330.212112,180.589286 332.410714,182.787888 332.410714,185.500001 Z" id="Path"></path>
                    <path d="M332.410714,204.500001 C332.410714,207.212113 330.212112,209.410714 327.499999,209.410714 C324.787887,209.410714 322.589286,207.212113 322.589286,204.500001 C322.589286,201.787888 324.787887,199.589286 327.499999,199.589286 C330.212112,199.589286 332.410714,201.787888 332.410714,204.500001 Z" id="Path"></path>
                    <path d="M332.410714,220.500001 C332.410714,223.212113 330.212112,225.410714 327.499999,225.410714 C324.787887,225.410714 322.589286,223.212113 322.589286,220.500001 C322.589286,217.787888 324.787887,215.589286 327.499999,215.589286 C330.212112,215.589286 332.410714,217.787888 332.410714,220.500001 Z" id="Path"></path>
                    <path d="M332.410714,238.500001 C332.410714,241.212113 330.212112,243.410714 327.499999,243.410714 C324.787887,243.410714 322.589286,241.212113 322.589286,238.500001 C322.589286,235.787888 324.787887,233.589286 327.499999,233.589286 C330.212112,233.589286 332.410714,235.787888 332.410714,238.500001 Z" id="Path"></path>
                    <path d="M348.410714,166.500001 C348.410714,169.212113 346.212112,171.410714 343.499999,171.410714 C340.787887,171.410714 338.589286,169.212113 338.589286,166.500001 C338.589286,163.787888 340.787887,161.589286 343.499999,161.589286 C346.212112,161.589286 348.410714,163.787888 348.410714,166.500001 Z" id="Path"></path>
                    <path d="M348.410714,185.500001 C348.410714,188.212113 346.212112,190.410714 343.499999,190.410714 C340.787887,190.410714 338.589286,188.212113 338.589286,185.500001 C338.589286,182.787888 340.787887,180.589286 343.499999,180.589286 C346.212112,180.589286 348.410714,182.787888 348.410714,185.500001 Z" id="Path"></path>
                    <path d="M348.410714,204.500001 C348.410714,207.212113 346.212112,209.410714 343.499999,209.410714 C340.787887,209.410714 338.589286,207.212113 338.589286,204.500001 C338.589286,201.787888 340.787887,199.589286 343.499999,199.589286 C346.212112,199.589286 348.410714,201.787888 348.410714,204.500001 Z" id="Path"></path>
                    <path d="M348.410714,220.500001 C348.410714,223.212113 346.212112,225.410714 343.499999,225.410714 C340.787887,225.410714 338.589286,223.212113 338.589286,220.500001 C338.589286,217.787888 340.787887,215.589286 343.499999,215.589286 C346.212112,215.589286 348.410714,217.787888 348.410714,220.500001 Z" id="Path"></path>
                    <path d="M348.410714,238.500001 C348.410714,241.212113 346.212112,243.410714 343.499999,243.410714 C340.787887,243.410714 338.589286,241.212113 338.589286,238.500001 C338.589286,235.787888 340.787887,233.589286 343.499999,233.589286 C346.212112,233.589286 348.410714,235.787888 348.410714,238.500001 Z" id="Path"></path>
                    <path d="M348.410714,257.500001 C348.410714,260.212113 346.212112,262.410714 343.499999,262.410714 C340.787887,262.410714 338.589286,260.212113 338.589286,257.500001 C338.589286,254.787888 340.787887,252.589286 343.499999,252.589286 C346.212112,252.589286 348.410714,254.787888 348.410714,257.500001 Z" id="Path"></path>
                    <path d="M367.410714,150.500001 C367.410714,153.212113 365.212112,155.410714 362.499999,155.410714 C359.787887,155.410714 357.589286,153.212113 357.589286,150.500001 C357.589286,147.787888 359.787887,145.589286 362.499999,145.589286 C365.212112,145.589286 367.410714,147.787888 367.410714,150.500001 Z" id="Path"></path>
                    <path d="M367.410714,166.500001 C367.410714,169.212113 365.212112,171.410714 362.499999,171.410714 C359.787887,171.410714 357.589286,169.212113 357.589286,166.500001 C357.589286,163.787888 359.787887,161.589286 362.499999,161.589286 C365.212112,161.589286 367.410714,163.787888 367.410714,166.500001 Z" id="Path"></path>
                    <path d="M367.410714,185.500001 C367.410714,188.212113 365.212112,190.410714 362.499999,190.410714 C359.787887,190.410714 357.589286,188.212113 357.589286,185.500001 C357.589286,182.787888 359.787887,180.589286 362.499999,180.589286 C365.212112,180.589286 367.410714,182.787888 367.410714,185.500001 Z" id="Path"></path>
                    <path d="M367.410714,204.500001 C367.410714,207.212113 365.212112,209.410714 362.499999,209.410714 C359.787887,209.410714 357.589286,207.212113 357.589286,204.500001 C357.589286,201.787888 359.787887,199.589286 362.499999,199.589286 C365.212112,199.589286 367.410714,201.787888 367.410714,204.500001 Z" id="Path"></path>
                    <path d="M367.410714,220.500001 C367.410714,223.212113 365.212112,225.410714 362.499999,225.410714 C359.787887,225.410714 357.589286,223.212113 357.589286,220.500001 C357.589286,217.787888 359.787887,215.589286 362.499999,215.589286 C365.212112,215.589286 367.410714,217.787888 367.410714,220.500001 Z" id="Path"></path>
                    <path d="M385.410714,150.500001 C385.410714,153.212113 383.212112,155.410714 380.499999,155.410714 C377.787887,155.410714 375.589286,153.212113 375.589286,150.500001 C375.589286,147.787888 377.787887,145.589286 380.499999,145.589286 C383.212112,145.589286 385.410714,147.787888 385.410714,150.500001 Z" id="Path"></path>
                    <path d="M385.410714,166.500001 C385.410714,169.212113 383.212112,171.410714 380.499999,171.410714 C377.787887,171.410714 375.589286,169.212113 375.589286,166.500001 C375.589286,163.787888 377.787887,161.589286 380.499999,161.589286 C383.212112,161.589286 385.410714,163.787888 385.410714,166.500001 Z" id="Path"></path>
                    <path d="M385.410714,185.500001 C385.410714,188.212113 383.212112,190.410714 380.499999,190.410714 C377.787887,190.410714 375.589286,188.212113 375.589286,185.500001 C375.589286,182.787888 377.787887,180.589286 380.499999,180.589286 C383.212112,180.589286 385.410714,182.787888 385.410714,185.500001 Z" id="Path"></path>
                    <path d="M385.410714,204.500001 C385.410714,207.212113 383.212112,209.410714 380.499999,209.410714 C377.787887,209.410714 375.589286,207.212113 375.589286,204.500001 C375.589286,201.787888 377.787887,199.589286 380.499999,199.589286 C383.212112,199.589286 385.410714,201.787888 385.410714,204.500001 Z" id="Path"></path>
                    <path d="M401.410714,131.500001 C401.410714,134.212113 399.212112,136.410714 396.499999,136.410714 C393.787887,136.410714 391.589286,134.212113 391.589286,131.500001 C391.589286,128.787888 393.787887,126.589286 396.499999,126.589286 C399.212112,126.589286 401.410714,128.787888 401.410714,131.500001 Z" id="Path"></path>
                    <path d="M401.410714,150.500001 C401.410714,153.212113 399.212112,155.410714 396.499999,155.410714 C393.787887,155.410714 391.589286,153.212113 391.589286,150.500001 C391.589286,147.787888 393.787887,145.589286 396.499999,145.589286 C399.212112,145.589286 401.410714,147.787888 401.410714,150.500001 Z" id="Path"></path>
                    <path d="M401.410714,166.500001 C401.410714,169.212113 399.212112,171.410714 396.499999,171.410714 C393.787887,171.410714 391.589286,169.212113 391.589286,166.500001 C391.589286,163.787888 393.787887,161.589286 396.499999,161.589286 C399.212112,161.589286 401.410714,163.787888 401.410714,166.500001 Z" id="Path"></path>
                    <path d="M420.410714,150.500001 C420.410714,153.212113 418.212112,155.410714 415.499999,155.410714 C412.787887,155.410714 410.589286,153.212113 410.589286,150.500001 C410.589286,147.787888 412.787887,145.589286 415.499999,145.589286 C418.212112,145.589286 420.410714,147.787888 420.410714,150.500001 Z" id="Path"></path>
                </g>
            </g>
        </g>
    </g>
</svg>