<?xml version="1.0" encoding="UTF-8"?>
<svg width="16px" height="12px" viewBox="0 0 16 12" version="1.1" xmlns="http://www.w3.org/2000/svg" xmlns:xlink="http://www.w3.org/1999/xlink">
    <!-- Generator: Sketch 52.2 (67145) - http://www.bohemiancoding.com/sketch -->
    <title>chevrons-right</title>
    <desc>Created with Sketch.</desc>
    <defs>
        <path d="M13.727799,6 L9.68742891,1.70710678 C9.31987664,1.31658249 9.31987664,0.683417511 9.68742891,0.292893219 C10.0549812,-0.0976310729 10.6509012,-0.0976310729 11.0184534,0.292893219 L15.7243358,5.29289322 C16.0918881,5.68341751 16.0918881,6.31658249 15.7243358,6.70710678 L11.0184534,11.7071068 C10.6509012,12.0976311 10.0549812,12.0976311 9.68742891,11.7071068 C9.31987664,11.3165825 9.31987664,10.6834175 9.68742891,10.2928932 L13.727799,6 Z M6.31257109,10.2928932 C6.68012336,10.6834175 6.68012336,11.3165825 6.31257109,11.7071068 C5.94501881,12.0976311 5.34909883,12.0976311 4.98154656,11.7071068 L0.275664206,6.70710678 C-0.0918880686,6.31658249 -0.0918880686,5.68341751 0.275664206,5.29289322 L4.98154656,0.292893219 C5.34909883,-0.0976310729 5.94501881,-0.0976310729 6.31257109,0.292893219 C6.68012336,0.683417511 6.68012336,1.31658249 6.31257109,1.70710678 L2.272201,6 L6.31257109,10.2928932 Z" id="path-1"></path>
    </defs>
    <g id="Website-Design" stroke="none" stroke-width="1" fill="none" fill-rule="evenodd">
        <g id="Home" transform="translate(-712.000000, -34.000000)">
            <g id="Navbar">
                <g id="chevrons-right" transform="translate(712.000000, 34.000000)">
                    <mask id="mask-2" fill="white">
                        <use xlink:href="#path-1"></use>
                    </mask>
                    <use id="Combined-Shape" fill="#E0E7EE" fill-rule="nonzero" xlink:href="#path-1"></use>
                </g>
            </g>
        </g>
    </g>
</svg>