<?xml version="1.0" encoding="UTF-8"?>
<svg width="38px" height="30px" viewBox="0 0 38 30" version="1.1" xmlns="http://www.w3.org/2000/svg" xmlns:xlink="http://www.w3.org/1999/xlink">
    <!-- Generator: Sketch 52.2 (67145) - http://www.bohemiancoding.com/sketch -->
    <title>mail</title>
    <desc>Created with Sketch.</desc>
    <defs>
        <path d="M36.6667272,4.97108574 C36.6669976,4.98753614 36.6670248,5.00398152 36.6668098,5.02041621 L36.6668098,25 C36.6668098,27.7538079 34.4206177,30 31.6668098,30 L5.0001431,30 C2.24633519,30 0.000143103753,27.7538079 0.000143103753,25 L0.000143103753,5.02041621 C-7.19577804e-05,5.00398152 -4.47651163e-05,4.98753614 0.000225679628,4.97108574 C0.0158824806,2.23048648 2.25597953,0 5.0001431,0 L31.6668098,0 C34.4109733,0 36.6510704,2.23048648 36.6667272,4.97108574 Z M33.1558475,4.256581 C32.8802139,3.7115387 32.3134118,3.33333333 31.6668098,3.33333333 L5.0001431,3.33333333 C4.35354105,3.33333333 3.78673901,3.7115387 3.5111054,4.256581 L18.3334764,14.6322407 L33.1558475,4.256581 Z M33.3334764,8.2010926 L19.289247,18.0320532 C18.7153801,18.43376 17.9515728,18.43376 17.3777059,18.0320532 L3.33347644,8.2010926 L3.33347644,25 C3.33347644,25.9128588 4.08728435,26.6666667 5.0001431,26.6666667 L31.6668098,26.6666667 C32.5796685,26.6666667 33.3334764,25.9128588 33.3334764,25 L33.3334764,8.2010926 Z" id="path-1"></path>
    </defs>
    <g id="Website-Design" stroke="none" stroke-width="1" fill="none" fill-rule="evenodd">
        <g id="Home" transform="translate(-1034.000000, -3443.000000)">
            <g id="Footer" transform="translate(-145.000000, 3107.000000)">
                <g id="Share" transform="translate(966.000000, 257.000000)">
                    <g id="mail" transform="translate(213.727273, 79.000000)">
                        <mask id="mask-2" fill="white">
                            <use xlink:href="#path-1"></use>
                        </mask>
                        <use id="Combined-Shape" fill="#FFFFFF" fill-rule="nonzero" xlink:href="#path-1"></use>
                    </g>
                </g>
            </g>
        </g>
    </g>
</svg>