<?xml version="1.0" encoding="UTF-8"?>
<svg width="20px" height="10px" viewBox="0 0 20 10" version="1.1" xmlns="http://www.w3.org/2000/svg" xmlns:xlink="http://www.w3.org/1999/xlink">
    <!-- Generator: Sketch 52.2 (67145) - http://www.bohemiancoding.com/sketch -->
    <title>Menu</title>
    <desc>Created with Sketch.</desc>
    <defs>
        <path d="M1383,37 C1382.44772,37 1382,36.5522847 1382,36 C1382,35.4477153 1382.44772,35 1383,35 L1401,35 C1401.55228,35 1402,35.4477153 1402,36 C1402,36.5522847 1401.55228,37 1401,37 L1383,37 Z M1387.75,45 C1387.33579,45 1387,44.5522847 1387,44 C1387,43.4477153 1387.33579,43 1387.75,43 L1401.25,43 C1401.66421,43 1402,43.4477153 1402,44 C1402,44.5522847 1401.66421,45 1401.25,45 L1387.75,45 Z" id="path-1"></path>
    </defs>
    <g id="Website-Design" stroke="none" stroke-width="1" fill="none" fill-rule="evenodd">
        <g id="Home" transform="translate(-1382.000000, -35.000000)">
            <g id="Navbar">
                <mask id="mask-2" fill="white">
                    <use xlink:href="#path-1"></use>
                </mask>
                <use id="Menu" fill="#445870" fill-rule="nonzero" xlink:href="#path-1"></use>
            </g>
        </g>
    </g>
</svg>